<svg xmlns="http://www.w3.org/2000/svg" xmlns:inkscape="http://www.inkscape.org/namespaces/inkscape" xmlns:sodipodi="http://sodipodi.sourceforge.net/DTD/sodipodi-0.dtd" width="1000" height="667" viewBox="0 0 264.583 176.47686" version="1.1" id="svg1" xml:space="preserve">
  <sodipodi:namedview id="namedview1" pagecolor="#ffffff" bordercolor="#999999" borderopacity="1" showguides="false" showgrid="false" />
  <defs id="defs1">
    <inkscape:path-effect effect="bspline" id="path-effect85" is_visible="true" lpeversion="1.3" weight="33.33" steps="2" helper_size="0" apply_no_weight="true" apply_with_weight="true" only_selected="false" uniform="false" />
    <inkscape:path-effect effect="bspline" id="path-effect84" is_visible="true" lpeversion="1.3" weight="33.33" steps="2" helper_size="0" apply_no_weight="true" apply_with_weight="true" only_selected="false" uniform="false" />
  </defs>
  <g id="Cities">
    <circle style="fill:#000000;stroke-width:0.2646" id="vancouver" cx="28.68" cy="27.81" r="1.965" />
    <circle style="fill:#000000;stroke-width:0.2646" id="seattle" cx="27.97" cy="41.74" r="1.965" />
    <circle style="fill:#000000;stroke-width:0.2646" id="portland" cx="22.25" cy="54.97" r="1.965" />
    <circle style="fill:#000000;stroke-width:0.2646" id="san_francisco" cx="18.63" cy="106.2" r="1.965" />
    <circle style="fill:#000000;stroke-width:0.2646" id="los_angeles" cx="38.56" cy="132.9" r="1.965" />
    <circle style="fill:#000000;stroke-width:0.2646" id="las_vegas" cx="55.58" cy="117.9" r="1.965" />
    <circle style="fill:#000000;stroke-width:0.2646" id="phoenix" cx="69.96" cy="134.6" r="1.965" />
    <circle style="fill:#000000;stroke-width:0.2646" id="salt_lake_city" cx="69.78" cy="89.35" r="1.965" />
    <circle style="fill:#000000;stroke-width:0.2646" id="helena" cx="88.21" cy="57.53" r="1.965" />
    <circle style="fill:#000000;stroke-width:0.2646" id="calgary" cx="62.55" cy="23.4" r="1.965" />
    <circle style="fill:#000000;stroke-width:0.2646" id="winnipeg" cx="120.8" cy="26.03" r="1.965" />
    <circle style="fill:#000000;stroke-width:0.2646" id="duluth" cx="149.6" cy="55.94" r="1.965" />
    <circle style="fill:#000000;stroke-width:0.2646" id="omaha" cx="142" cy="80.02" r="1.965" />
    <circle style="fill:#000000;stroke-width:0.2646" id="denver" cx="103.3" cy="97.62" r="1.965" />
    <circle style="fill:#000000;stroke-width:0.2646" id="santa_fe" cx="101.6" cy="120.6" r="1.965" />
    <circle style="fill:#000000;stroke-width:0.2646" id="el_paso" cx="100.5" cy="144.4" r="1.965" />
    <circle style="fill:#000000;stroke-width:0.2646" id="dallas" cx="147.3" cy="138.2" r="1.965" />
    <circle style="fill:#000000;stroke-width:0.2646" id="houston" cx="157.6" cy="148.5" r="1.965" />
    <circle style="fill:#000000;stroke-width:0.2646" id="oklahoma_city" cx="141.9" cy="115.3" r="1.965" />
    <circle style="fill:#000000;stroke-width:0.2646" id="little_rock" cx="165.5" cy="116.4" r="1.965" />
    <circle style="fill:#000000;stroke-width:0.2646" id="new_orleans" cx="182.1" cy="145.1" r="1.965" />
    <circle style="fill:#000000;stroke-width:0.2646" id="saint_louis" cx="169.7" cy="93.2" r="1.965" />
    <circle style="fill:#000000;stroke-width:0.2646" id="kansas_city" cx="146.7" cy="92.99" r="1.965" />
    <circle style="fill:#000000;stroke-width:0.2646" id="chicago" cx="181.3" cy="71.93" r="1.965" />
    <circle style="fill:#000000;stroke-width:0.2646" id="nashville" cx="193.9" cy="103.1" r="1.965" />
    <circle style="fill:#000000;stroke-width:0.2646" id="atlanta" cx="206.9" cy="112.2" r="1.965" />
    <circle style="fill:#000000;stroke-width:0.2646" id="charleston" cx="231.2" cy="114.2" r="1.965" />
    <circle style="fill:#000000;stroke-width:0.2646" id="miami" cx="239.5" cy="154.7" r="1.965" />
    <circle style="fill:#000000;stroke-width:0.2646" id="raleigh" cx="224.2" cy="97.22" r="1.965" />
    <circle style="fill:#000000;stroke-width:0.2646" id="washington_dc" cx="239.3" cy="79.49" r="1.965" />
    <circle style="fill:#000000;stroke-width:0.2646" id="pittsburgh" cx="215.2" cy="68.2" r="1.965" />
    <circle style="fill:#000000;stroke-width:0.2646" id="new_york" cx="236.9" cy="56.51" r="1.965" />
    <circle style="fill:#000000;stroke-width:0.2646" id="boston" cx="250.5" cy="37.3" r="1.965" />
    <circle style="fill:#000000;stroke-width:0.2646" id="montreal" cx="231.9" cy="21.81" r="1.965" />
    <circle style="fill:#000000;stroke-width:0.2646" id="toronto" cx="211" cy="44.3" r="1.965" />
    <circle style="fill:#000000;stroke-width:0.2646" id="sault_st_marie" cx="182.6" cy="38.71" r="1.965" />
  </g>
  <g id="Routes">
    <g id="vancouver_calgary" transform="translate(4.511,-0.575)" data-to="calgary" style="fill:#a3a2a0;fill-opacity:1">
      <rect style="fill:#a3a2a0;stroke-width:0.2646;fill-opacity:1" width="8.756" height="3.128" x="32.89" y="28.6" transform="rotate(-6.194,1.139,77.13)" id="rect34" />
      <rect style="fill:#a3a2a0;stroke-width:0.2646;fill-opacity:1" width="8.756" height="3.128" x="32.89" y="28.6" transform="rotate(-6.194,-3.489,-8.409)" id="rect35" />
      <rect style="fill:#a3a2a0;stroke-width:0.2646;fill-opacity:1" width="8.756" height="3.128" x="32.89" y="28.6" transform="rotate(-6.194,-8.117,-93.94)" id="rect36" />
    </g>
    <g id="g47" transform="translate(4.252,1.001)" style="fill:#e1e84b;fill-opacity:1">
      <rect style="fill:#e1e84b;stroke-width:0.2646;fill-opacity:1" width="8.867" height="3.117" x="91.76" y="55.62" transform="rotate(12.82,116.5,-238.4)" id="rect42" />
      <rect style="fill:#e1e84b;stroke-width:0.2646;fill-opacity:1" width="8.867" height="3.117" x="91.76" y="55.62" transform="rotate(12.82,111.8,-196.8)" id="rect43" />
      <rect style="fill:#e1e84b;stroke-width:0.2646;fill-opacity:1" width="8.867" height="3.117" x="91.76" y="55.62" transform="rotate(12.82,107.1,-155.1)" id="rect44" />
      <rect style="fill:#e1e84b;stroke-width:0.2646;fill-opacity:1" width="8.867" height="3.117" x="91.76" y="55.62" transform="rotate(12.82,102.4,-113.4)" id="rect45" />
      <rect style="fill:#e1e84b;stroke-width:0.2646;fill-opacity:1" width="8.867" height="3.117" x="91.76" y="55.62" transform="rotate(12.82,97.76,-71.73)" id="rect46" />
      <rect style="fill:#e1e84b;stroke-width:0.2646;fill-opacity:1" width="8.867" height="3.117" x="91.76" y="55.62" transform="rotate(12.82,93.08,-30.05)" id="rect47" />
    </g>
    <g id="g53" transform="translate(3.524,-0.2394)" style="fill:#d09034;fill-opacity:1;fill-rule:nonzero">
      <rect style="fill:#d09034;stroke-width:0.2646;fill-opacity:1;fill-rule:nonzero" width="8.991" height="3.175" x="91.68" y="55.57" transform="matrix(0.9993,-0.0361,0.0361,0.9993,-6.495,3.579)" id="rect54" />
      <rect style="fill:#d09034;stroke-width:0.2646;fill-opacity:1;fill-rule:nonzero" width="8.991" height="3.175" x="91.68" y="55.57" transform="matrix(0.9993,-0.0361,0.0361,0.9993,3.049,3.407)" id="rect55" />
      <rect style="fill:#d09034;stroke-width:0.2646;fill-opacity:1;fill-rule:nonzero" width="8.991" height="3.175" x="91.68" y="55.57" transform="matrix(0.9993,-0.0361,0.0361,0.9993,12.59,3.235)" id="rect56" />
      <rect style="fill:#d09034;stroke-width:0.2646;fill-opacity:1;fill-rule:nonzero" width="8.991" height="3.175" x="91.68" y="55.57" transform="matrix(0.9993,-0.0361,0.0361,0.9993,22.14,3.063)" id="rect57" />
      <rect style="fill:#d09034;stroke-width:0.2646;fill-opacity:1;fill-rule:nonzero" width="8.991" height="3.175" x="91.68" y="55.57" transform="matrix(0.9993,-0.0361,0.0361,0.9993,31.68,2.891)" id="rect58" />
      <rect style="fill:#d09034;stroke-width:0.2646;fill-opacity:1;fill-rule:nonzero" width="8.991" height="3.175" x="91.68" y="55.57" transform="matrix(0.9993,-0.0361,0.0361,0.9993,41.21,2.719)" id="rect59" />
    </g>
    <g id="sanfrancisco-saltlakecity" transform="translate(0.0884,-0.0884)">
      <g id="g68" transform="translate(2.211,-0.7961)" style="fill:#d09034;fill-opacity:1">
        <rect style="fill:#d09034;stroke-width:0.264587;fill-opacity:1" width="8.991" height="3.175" x="68.64" y="76.94" transform="rotate(-20.69,115.5,227.4)" id="rect64" />
        <rect style="fill:#d09034;stroke-width:0.264587;fill-opacity:1" width="8.991" height="3.175" x="68.64" y="76.94" transform="rotate(-20.69,111.7,201.2)" id="rect65" />
        <rect style="fill:#d09034;stroke-width:0.264587;fill-opacity:1" width="8.991" height="3.175" x="68.64" y="76.94" transform="rotate(-20.69,107.9,175)" id="rect66" />
        <rect style="fill:#d09034;stroke-width:0.264587;fill-opacity:1" width="8.991" height="3.175" x="68.64" y="76.94" transform="rotate(-20.69,104.1,148.9)" id="rect67" />
        <rect style="fill:#d09034;stroke-width:0.264587;fill-opacity:1" width="8.991" height="3.175" x="68.64" y="76.94" transform="rotate(-20.69,100.3,122.7)" id="rect68" />
      </g>
      <g id="g73" transform="translate(3.273,2.122)" style="fill:#e7eaf2;fill-opacity:1">
        <rect style="fill:#e7eaf2;stroke-width:0.264587;fill-opacity:1" width="8.991" height="3.175" x="68.64" y="76.94" transform="rotate(-20.69,115.5,227.4)" id="rect69" />
        <rect style="fill:#e7eaf2;stroke-width:0.264587;fill-opacity:1" width="8.991" height="3.175" x="68.64" y="76.94" transform="rotate(-20.69,111.7,201.2)" id="rect70" />
        <rect style="fill:#e7eaf2;stroke-width:0.264587;fill-opacity:1" width="8.991" height="3.175" x="68.64" y="76.94" transform="matrix(0.9356,-0.3532,0.3532,0.9356,-45.91,46.39)" id="rect72" />
        <rect style="fill:#e7eaf2;stroke-width:0.264587;fill-opacity:1" width="8.991" height="3.175" x="68.64" y="76.94" transform="matrix(0.9356,-0.3532,0.3532,0.9356,-54.88,49.4)" id="rect71" />
        <rect style="fill:#e7eaf2;stroke-width:0.264587;fill-opacity:1" width="8.991" height="3.175" x="68.64" y="76.94" transform="rotate(-20.69,100.3,122.7)" id="rect73" />
      </g>
    </g>
    <g id="g82" transform="translate(2.387,2.938)" style="fill:#a3a2a0;fill-opacity:1">
      <rect style="fill:#a3a2a0;stroke-width:0.264587;fill-opacity:1" width="8.991" height="3.175" x="68.64" y="76.94" transform="matrix(0.6679,0.7442,-0.7442,0.6679,74.66,-80.44)" id="rect79" />
      <rect style="fill:#a3a2a0;stroke-width:0.264587;fill-opacity:1" width="8.991" height="3.175" x="68.64" y="76.94" transform="matrix(0.6679,0.7442,-0.7442,0.6679,80.75,-73.15)" id="rect80" />
      <rect style="fill:#a3a2a0;stroke-width:0.264587;fill-opacity:1" width="8.991" height="3.175" x="68.64" y="76.94" transform="matrix(0.6679,0.7442,-0.7442,0.6679,86.83,-65.86)" id="rect81" />
      <rect style="fill:#a3a2a0;stroke-width:0.264587;fill-opacity:1" width="8.991" height="3.175" x="68.64" y="76.94" transform="matrix(0.6679,0.7442,-0.7442,0.6679,92.92,-58.56)" id="rect82" />
    </g>
    <rect style="fill:#000000;stroke-width:0.264587" width="8.991" height="3.175" x="68.64" y="76.94" transform="matrix(0.9993,-0.0361,0.0361,0.9993,0,0)" id="rect59-3" />
    <g id="g100" transform="translate(1.677,3.665)" style="fill:#9bc754;fill-opacity:1">
      <rect style="fill:#9bc754;stroke-width:0.264587;fill-opacity:1" width="8.991" height="3.175" x="68.64" y="76.94" transform="matrix(0.4099,0.9121,-0.9121,0.4099,131.5,-38.84)" id="rect97" />
      <rect style="fill:#9bc754;stroke-width:0.264587;fill-opacity:1" width="8.991" height="3.175" x="68.64" y="76.94" transform="matrix(0.4099,0.9121,-0.9121,0.4099,135.1,-30.04)" id="rect98" />
      <rect style="fill:#9bc754;stroke-width:0.264587;fill-opacity:1" width="8.991" height="3.175" x="68.64" y="76.94" transform="matrix(0.4099,0.9121,-0.9121,0.4099,138.7,-21.24)" id="rect99" />
      <rect style="fill:#9bc754;stroke-width:0.264587;fill-opacity:1" width="8.991" height="3.175" x="68.64" y="76.94" transform="matrix(0.4099,0.9121,-0.9121,0.4099,142.2,-12.44)" id="rect100" />
    </g>
    <g id="g102" transform="translate(1.298,-3.506)">
      <rect style="fill:#000000;stroke-width:0.264587" width="8.991" height="3.175" x="68.64" y="76.94" transform="matrix(0.2536,-0.9673,0.9673,0.2536,47.4,162.7)" id="rect101" />
      <rect style="fill:#000000;stroke-width:0.264587" width="8.991" height="3.175" x="68.64" y="76.94" transform="matrix(0.2536,-0.9673,0.9673,0.2536,50.11,153.7)" id="rect102" />
    </g>
    <g id="g104" transform="translate(3.895)">
      <rect style="fill:#000000;stroke-width:0.264587" width="8.991" height="3.175" x="68.64" y="76.94" transform="matrix(0.9984,-0.0561,0.0561,0.9984,72.58,16.67)" id="rect103" />
      <rect style="fill:#000000;stroke-width:0.264587" width="8.991" height="3.175" x="68.64" y="76.94" transform="matrix(0.9984,-0.0561,0.0561,0.9984,81.98,16.48)" id="rect104" />
    </g>
    <g id="g105" transform="translate(2.078,3.765)">
      <rect style="fill:#000000;stroke-width:0.264587" width="8.991" height="3.175" x="68.64" y="76.94" transform="matrix(0.5065,0.8622,-0.8622,0.5065,175.4,-20.96)" id="rect105" />
    </g>
    <g id="g110" transform="translate(1.298,-3.506)">
      <rect style="fill:#000000;stroke-width:0.264587" width="8.991" height="3.175" x="68.64" y="76.94" transform="matrix(0.3329,-0.9429,0.9429,0.3329,45.11,119.2)" id="rect109" />
      <rect style="fill:#000000;stroke-width:0.264587" width="8.991" height="3.175" x="68.64" y="76.94" transform="matrix(0.3329,-0.9429,0.9429,0.3329,48.55,110.4)" id="rect110" />
    </g>
    <g id="g115" transform="translate(3.868,1.466)">
      <rect style="fill:#000000;stroke-width:0.264587" width="8.991" height="3.175" x="68.64" y="76.94" transform="matrix(0.9373,0.3485,-0.3485,0.9373,53.36,-38.58)" id="rect111" />
      <rect style="fill:#000000;stroke-width:0.264587" width="8.991" height="3.175" x="68.64" y="76.94" transform="matrix(0.9373,0.3485,-0.3485,0.9373,62.04,-34.98)" id="rect112" />
      <rect style="fill:#000000;stroke-width:0.264587" width="8.991" height="3.175" x="68.64" y="76.94" transform="matrix(0.9373,0.3485,-0.3485,0.9373,70.73,-31.39)" id="rect113" />
      <rect style="fill:#000000;stroke-width:0.264587" width="8.991" height="3.175" x="68.64" y="76.94" transform="matrix(0.9373,0.3485,-0.3485,0.9373,79.41,-27.8)" id="rect114" />
      <rect style="fill:#000000;stroke-width:0.264587" width="8.991" height="3.175" x="68.64" y="76.94" transform="matrix(0.9373,0.3485,-0.3485,0.9373,88.1,-24.21)" id="rect115" />
    </g>
    <g id="g126" transform="matrix(0.9703,0,0,0.9318,6.633,6.74)" style="display:inline;fill:#cd4138;fill-opacity:1">
      <rect style="fill:#cd4138;fill-opacity:1;stroke-width:0.264587" width="8.991" height="3.175" x="68.64" y="76.94" transform="matrix(0.988,0.1539,-0.1539,0.988,13.06,-0.8137)" id="rect124" />
      <rect style="fill:#cd4138;fill-opacity:1;stroke-width:0.264587" width="8.991" height="3.175" x="68.64" y="76.94" transform="matrix(0.988,0.1539,-0.1539,0.988,22.29,0.9673)" id="rect125" />
      <rect style="fill:#cd4138;fill-opacity:1;stroke-width:0.264587" width="8.991" height="3.175" x="68.64" y="76.94" transform="matrix(0.988,0.1539,-0.1539,0.988,31.52,2.748)" id="rect126" />
    </g>
  </g>
  <g id="Labels" />
</svg>