<?xml version="1.0" encoding="UTF-8" standalone="no"?>
<svg
   version="1.0"
   width="1500"
   height="1000"
   viewBox="0 0 1141 749.9"
   preserveAspectRatio="xMidYMid"
   id="svg125"
   sodipodi:docname="DestinationBack.svg"
   inkscape:version="1.3.2 (091e20e, 2023-11-25, custom)"
   xmlns:inkscape="http://www.inkscape.org/namespaces/inkscape"
   xmlns:sodipodi="http://sodipodi.sourceforge.net/DTD/sodipodi-0.dtd"
   xmlns="http://www.w3.org/2000/svg"
   xmlns:svg="http://www.w3.org/2000/svg">
  <defs
     id="defs125">
    <linearGradient
       id="linearGradient128"
       inkscape:swatch="gradient">
      <stop
         style="stop-color:#ffffff;stop-opacity:1;"
         offset="0"
         id="stop128" />
      <stop
         style="stop-color:#ffffff;stop-opacity:0;"
         offset="1"
         id="stop129" />
    </linearGradient>
  </defs>
  <sodipodi:namedview
     id="namedview125"
     pagecolor="#ffffff"
     bordercolor="#999999"
     borderopacity="1"
     inkscape:showpageshadow="2"
     inkscape:pageopacity="0"
     inkscape:pagecheckerboard="0"
     inkscape:deskcolor="#d1d1d1"
     inkscape:document-units="pt"
     inkscape:zoom="0.389"
     inkscape:cx="545"
     inkscape:cy="798.2"
     inkscape:window-width="1920"
     inkscape:window-height="1111"
     inkscape:window-x="-9"
     inkscape:window-y="-9"
     inkscape:window-maximized="1"
     inkscape:current-layer="svg125" />
  <metadata
     id="metadata1">
Created by potrace 1.15, written by Peter Selinger 2001-2017
</metadata>
  <g
     inkscape:groupmode="layer"
     id="layer1"
     inkscape:label="BG"
     transform="scale(0.9998)">
    <rect
       style="fill:#ead3a8;fill-opacity:1;stroke:#000000;stroke-width:1.04977;stroke-linejoin:bevel;stroke-dashoffset:100.004;paint-order:stroke markers fill"
       id="rect128"
       width="1140"
       height="759.8"
       x="0.5253"
       y="-4.86"
       inkscape:label="rect128" />
  </g>
  <g
     transform="matrix(0,0.0998,0.0948,0,-41.43,-38.22)"
     fill="#000000"
     stroke="none"
     id="g125"
     style="display:inline;fill:#000000;fill-opacity:1;stroke-width:1.02786">
    <path
       d="m 337,12460 c -4,0 -7,-850 -7,-1900 0,-1883 0,-1890 20,-1890 20,0 20,8 22,1880 l 3,1880 h 1878 c 1869,0 1877,0 1877,20 0,20 -7,20 -1893,20 -1042,0 -1897,0 -1900,-10 z"
       id="path1"
       style="fill:#000000;fill-opacity:1;stroke-width:1.02786" />
    <path
       d="m 4150,12450 c 0,-20 8,-20 1878,-20 h 1882 v -1880 c 0,-1872 0,-1880 20,-1880 20,0 20,6 20,1900 v 1900 H 6048 c -1892,0 -1898,0 -1898,-20 z"
       id="path2"
       style="fill:#000000;fill-opacity:1;stroke-width:1.02786" />
    <path
       d="m 420,10530 c 0,-1284 3,-1860 10,-1860 7,0 10,100 8,310 -2,229 0,306 8,295 14,-19 38,-20 31,-1 -3,8 -1,16 6,19 9,3 8,11 -3,33 -24,48 -24,50 -6,35 26,-22 32,-4 7,23 -13,13 -18,25 -12,27 7,3 3,20 -10,47 -20,39 -21,47 -9,85 8,23 19,47 25,52 7,6 15,19 19,30 3,11 16,31 27,45 20,24 20,24 9,2 -17,-35 -3,-40 15,-6 9,16 45,81 81,144 113,200 144,270 160,360 8,50 21,110 29,130 19,60 19,70 -1,70 -17,0 -17,10 2,90 6,30 4,30 -10,30 -15,-10 -17,0 -15,50 1,30 -1,50 -5,60 -14,10 -25,-20 -21,-70 3,-40 1,-40 -10,20 -20,100 -11,170 27,200 81,80 188,-20 116,-100 l -23,-20 28,20 c 54,50 22,140 -49,140 -75,0 -124,-50 -124,-140 0,-20 -4,-40 -9,-40 -7,0 -91,160 -91,180 0,0 11,0 23,0 39,0 39,10 2,30 l -35,30 26,30 c 15,30 31,40 39,40 46,-20 82,-20 125,0 45,30 90,80 90,110 -1,10 -7,0 -14,-10 -7,-20 -28,-50 -45,-60 -87,-80 -202,-30 -216,90 l -5,50 14,-50 c 30,-110 128,-140 202,-80 28,30 37,50 41,80 4,40 2,50 -22,80 -22,20 -24,20 -11,0 20,-30 20,-60 1,-100 -43,-80 -156,-60 -172,30 -8,50 27,120 75,150 39,30 131,30 186,20 23,-10 27,-10 21,0 -5,10 -4,10 4,10 6,-10 9,-10 6,-20 -3,0 5,-10 17,-20 22,-10 22,-10 9,10 -7,10 7,-10 33,-30 75,-80 94,-190 57,-320 -10,-40 -22,-70 -26,-80 -5,-20 -4,-20 1,-20 4,10 18,30 29,60 l 21,50 34,-50 c 121,-160 370,-120 425,70 70,250 -160,470 -478,470 h -89 l 30,30 c 36,50 56,130 43,180 -29,130 -137,210 -276,200 -92,0 -163,-30 -234,-100 -82,-90 -105,-150 -109,-290 -3,-100 0,-130 21,-210 14,-50 37,-120 51,-150 14,-30 23,-60 21,-60 -8,0 -29,50 -61,140 -18,50 -33,80 -34,70 0,-10 51,-170 73,-220 21,-50 10,-70 -34,-50 -42,10 -46,10 -19,-30 12,-20 21,-30 19,-30 -6,-10 -47,-30 -51,-30 -2,0 -3,350 -3,780 v 770 h 778 c 620,0 777,0 771,-10 -21,-40 -26,-40 -62,-20 l -35,20 6,-20 c 4,-20 9,-30 13,-40 10,-30 -25,-30 -93,0 -74,30 -192,60 -199,60 -2,0 22,-10 54,-20 63,-20 174,-70 169,-80 -2,0 -35,10 -74,30 -176,70 -378,90 -506,40 -76,-30 -167,-110 -204,-190 -24,-50 -28,-70 -28,-130 0,-70 5,-90 27,-140 72,-130 242,-180 346,-90 17,10 31,20 33,20 2,0 5,-40 5,-80 4,-210 102,-390 249,-460 66,-30 200,-30 255,-10 139,80 179,240 90,370 -15,20 -44,50 -64,60 -20,10 -36,20 -36,20 0,0 22,10 49,20 27,10 57,30 67,40 11,0 -12,0 -51,-20 -82,-30 -201,-40 -261,-20 -50,10 -115,60 -145,100 -15,10 -17,20 -6,10 15,-10 15,-10 -3,30 -45,100 -13,210 73,260 36,20 55,20 83,20 78,-20 110,-100 60,-150 -36,-40 -70,-50 -131,-20 -19,0 -19,0 -3,-10 10,-20 37,-20 66,-30 46,0 53,0 86,30 70,70 57,160 -27,200 -26,10 -35,20 -22,20 33,0 81,-30 99,-70 30,-70 3,-140 -68,-180 -17,-10 -26,-20 -21,-20 22,0 76,40 95,70 26,50 26,120 0,160 -29,50 -97,70 -166,70 -77,-10 -140,-50 -177,-120 -26,-50 -28,-60 -25,-130 5,-80 20,-120 76,-180 38,-40 120,-90 160,-90 28,0 28,0 -3,-40 -34,-40 -47,-90 -34,-140 6,-30 10,-50 9,-60 -8,-70 -3,-100 19,-120 56,-60 -54,-10 -121,60 -27,20 -48,40 -48,30 0,-10 87,-90 132,-110 63,-30 132,-40 189,-30 28,10 48,20 44,20 -3,0 6,20 20,30 65,70 20,200 -65,190 h -22 l 22,-30 c 15,-20 28,-30 40,-20 13,0 22,-10 29,-20 16,-30 14,-40 -3,-30 -8,10 -25,10 -38,10 -31,-10 -34,-50 -3,-50 11,0 20,0 20,10 0,10 -8,10 -17,10 -10,0 -15,10 -12,10 9,20 33,10 43,-10 12,-20 -6,-50 -45,-80 -44,-30 -58,-20 -33,10 17,20 19,30 9,50 -16,30 -35,20 -35,-20 0,-30 -2,-30 -40,-40 -22,0 -35,0 -29,10 18,0 5,40 -22,60 -14,0 -24,20 -24,30 0,20 2,20 9,10 11,-20 45,-10 39,10 -3,10 -13,20 -24,20 -27,0 -34,20 -34,70 0,100 54,150 149,150 47,10 65,0 97,-20 21,-20 45,-40 53,-50 12,-20 10,-20 -15,0 -34,30 -93,60 -129,60 -16,0 -35,-10 -50,-30 l -23,-20 26,-20 c 20,-10 40,-20 91,-10 52,0 70,0 86,-10 11,-10 13,-20 5,-10 -8,0 -5,-10 8,-20 12,-20 22,-40 23,-50 0,-10 2,-10 6,0 3,10 -2,20 -11,40 -9,10 -12,20 -7,20 35,0 42,-120 12,-180 -77,-150 -290,-160 -427,-20 -41,40 -77,90 -55,80 17,-10 13,0 -19,50 -65,100 -99,290 -65,370 27,60 18,170 -18,210 -48,70 -137,100 -210,80 -43,-10 -97,-50 -97,-60 0,-10 10,0 23,10 48,40 124,50 193,20 126,-60 138,-240 21,-320 -38,-30 -141,-40 -188,-10 -45,20 -78,50 -96,90 -11,20 -11,20 -2,10 7,0 33,-10 59,-10 60,0 94,30 97,100 2,50 -35,90 -94,100 -34,0 -44,0 -64,-30 l -24,-20 -3,20 c -6,40 54,150 101,190 154,130 371,130 674,10 l 71,-30 -14,-30 c -19,-50 -19,-50 19,-30 17,10 35,20 39,20 4,0 16,-20 26,-40 l 19,-30 7,30 7,40 89,-40 c 50,-30 90,-50 90,-50 0,-10 -13,-10 -29,-10 -54,0 -92,-10 -120,-40 -53,-50 -45,-130 16,-160 20,0 37,-10 40,-10 2,10 -6,10 -19,20 -62,10 -79,80 -34,140 22,20 31,30 103,30 43,0 96,0 118,-10 l 40,-10 h -53 c -38,0 -52,0 -49,-10 3,-10 21,-10 60,-10 51,0 56,0 50,-20 -7,-10 3,-10 88,10 21,0 27,0 32,-20 5,-20 7,-20 41,0 20,0 75,20 121,30 113,20 170,40 316,120 68,40 147,80 176,100 28,10 57,30 63,40 15,10 7,10 -21,0 -10,-10 -19,-10 -19,-10 0,10 19,20 43,30 23,10 45,30 48,30 4,10 12,10 19,10 9,-10 11,-10 6,0 -5,10 0,10 13,10 11,0 23,10 26,10 8,10 62,0 90,-20 24,-10 38,-10 29,0 -4,10 4,10 18,-10 36,-30 67,-20 36,10 -8,10 -3,10 14,0 30,-20 58,-20 58,-10 0,10 7,10 15,0 21,0 19,20 -2,30 -13,10 77,10 295,10 201,0 312,0 312,10 0,10 -625,10 -1855,10 H 420 Z m 2737,1800 c -42,-20 -102,-50 -132,-70 -57,-30 -62,-30 -45,0 18,30 3,20 -20,-10 -12,-20 -30,-40 -39,-40 -14,0 -10,10 18,40 20,20 45,50 55,70 l 19,40 -24,-30 c -40,-30 -70,-40 -152,-50 -104,-10 -139,-40 -100,-80 19,-20 91,-30 125,-10 15,10 19,10 14,0 -4,0 0,-10 10,-10 15,0 14,0 -6,-20 -33,-40 -129,-90 -197,-100 -83,-20 -279,-10 -322,10 -18,10 -30,20 -26,10 5,-10 -2,-10 -22,0 -39,10 -67,20 -30,20 31,-10 35,0 10,20 -17,10 -17,10 1,30 19,10 19,10 -7,10 -23,0 -27,0 -27,30 v 20 l -16,-20 c -12,-10 -19,-20 -27,-10 -17,20 -27,10 -24,-10 4,-40 -31,-40 -88,-10 -27,10 -39,20 -26,20 23,-10 22,-10 -9,30 l -32,30 33,30 34,30 h -47 l -48,-10 v 30 40 h 613 612 z m 319,10 19,-20 -30,20 c -41,20 -40,20 -23,20 8,0 23,-10 34,-20 z m -1779,-180 c -3,0 -12,0 -19,0 -8,10 -5,10 6,10 11,0 17,0 13,-10 z m -52,-10 c -65,-40 -96,-90 -105,-180 l -7,-60 -1,50 c -1,30 5,70 17,100 18,40 82,100 104,100 7,0 3,-10 -8,-10 z m 585,-80 c 13,-10 13,-10 -2,-10 -9,0 -20,10 -23,10 -8,10 5,10 25,0 z m 107,-50 c -3,0 -12,0 -19,0 -8,10 -5,10 6,10 11,0 17,0 13,-10 z m -1156,-30 c 13,-10 12,-10 -8,0 -20,10 -26,10 -45,0 -21,-10 -22,-10 -9,0 7,10 21,20 31,20 10,0 24,-10 31,-20 z m -57,-50 c 3,0 2,-10 -4,0 -6,0 -10,10 -10,10 0,20 7,10 14,-10 z m 57,0 c -10,-10 -11,-10 -5,0 3,10 9,20 12,20 3,-10 0,-20 -7,-20 z m -411,-210 c 0,0 -9,-10 -20,-20 -11,-10 -20,-30 -20,-30 0,0 -13,-20 -30,-40 -36,-40 -54,-100 -45,-150 21,-140 143,-200 282,-160 189,60 465,-60 554,-230 23,-50 25,-70 4,-40 -21,30 -85,50 -113,30 -14,-10 -29,-10 -47,0 -64,20 -147,10 -189,-40 l -20,-20 -13,50 c -25,100 -110,190 -206,210 -62,20 -149,10 -202,-20 -111,-70 -141,-230 -59,-320 l 25,-30 -38,-10 c -21,-10 -41,-10 -45,-10 -15,10 -90,220 -104,290 -20,100 -18,230 6,300 24,80 79,150 144,200 60,40 136,60 136,40 z m 178,-30 c 64,-50 87,-90 87,-170 0,-70 -3,-80 -29,-110 -53,-70 -161,-100 -235,-60 -19,10 -48,30 -65,50 -28,40 -31,50 -31,110 0,50 5,80 21,100 26,30 49,40 40,10 -5,-10 2,-30 23,-50 25,-20 39,-30 73,-30 61,0 96,40 96,100 0,40 -5,50 -16,60 -9,10 -14,10 -9,10 4,0 24,-10 45,-20 z m -94,-20 c 9,0 16,-10 16,-10 0,-10 -4,-10 -12,0 -17,20 -45,10 -57,-10 -6,-10 -11,-10 -11,0 0,20 32,40 64,20 z m -22,-70 c 6,0 9,0 6,-10 -9,0 -48,20 -48,30 0,10 7,0 16,0 8,-10 20,-20 26,-20 z m 21,-350 c -13,0 -33,0 -45,0 -13,10 -3,10 22,10 25,0 35,0 23,-10 z m -108,-20 c -48,-20 -78,-50 -99,-100 -8,-20 -15,-30 -16,-20 -1,40 93,140 140,140 8,0 -3,-10 -25,-20 z m 720,-60 c 101,-110 111,-260 24,-360 -40,-50 -95,-80 -130,-70 -12,10 -17,0 -13,0 12,-20 -70,0 -94,20 -31,30 -43,80 -32,140 8,30 7,50 -6,70 -19,30 -22,30 -51,0 -42,-30 -24,-120 38,-180 19,-20 25,-30 14,-20 -52,30 -95,100 -95,160 0,80 66,150 145,150 64,0 85,-10 85,-40 0,-10 6,-20 14,-20 22,0 30,20 16,40 -10,10 -9,10 9,10 13,0 26,-10 32,-20 13,-30 49,-40 61,-30 5,10 8,0 8,-20 0,-10 -6,-30 -14,-40 -12,-20 -16,-20 -30,-10 -23,20 -45,0 -26,-20 17,-20 32,-20 64,0 30,30 32,20 10,-30 -28,-50 -106,-80 -103,-30 1,20 2,20 6,10 5,-20 28,-30 38,-10 7,10 -12,40 -26,40 -10,0 -39,-30 -39,-40 0,0 10,-20 23,-30 l 22,-20 -25,10 c -36,10 -50,20 -50,50 0,10 -11,30 -25,30 -25,20 -25,20 -25,-10 0,-50 36,-80 98,-90 41,0 52,0 80,30 20,10 30,20 26,10 -3,-10 -3,-20 0,-20 16,0 36,70 36,130 0,90 -34,160 -108,230 -37,40 -46,60 -26,40 17,-10 48,-40 69,-60 z m -980,-400 c 17,0 20,-10 17,-40 l -3,-40 30,30 31,30 30,-30 c 26,-30 30,-30 30,-10 1,10 6,10 21,-20 11,-20 19,-50 17,-70 -3,-20 -7,-20 -32,-20 -27,0 -27,0 -11,-20 15,-20 15,-20 -7,-30 l -22,-20 h 28 c 26,0 28,0 21,-30 l -6,-20 21,20 c 20,10 22,10 31,0 14,-30 28,-20 22,0 -4,20 -3,20 6,10 6,-10 13,-30 16,-60 3,-20 9,-50 15,-70 13,-60 12,-210 -1,-270 -15,-70 -49,-147 -83,-187 -22,-26 -30,-30 -41,-20 -8,8 -10,18 -4,29 17,31 10,98 -11,118 -25,30 -32,30 -54,0 -12,-10 -21,-50 -27,-100 -10,-86 -18,-110 -53,-149 l -21,-24 34,19 c 19,10 52,35 73,55 31,29 38,32 38,17 0,-11 -19,-30 -47,-48 -51,-31 -52,-40 -3,-15 l 29,15 -44,-83 c -24,-45 -51,-102 -61,-127 -9,-25 -20,-48 -23,-52 -3,-4 -5,268 -4,602 2,340 3,620 3,620 0,0 24,0 45,-10 z m 248,-200 c 3,-10 1,-20 -4,-10 -5,0 -9,10 -9,20 0,20 7,10 13,-10 z M 454,9348 c 9,-17 14,-33 12,-36 -4,-4 -36,51 -36,63 0,13 10,3 24,-27 z"
       id="path3"
       style="fill:#000000;fill-opacity:1;stroke-width:1.02786" />
    <path
       d="m 2340,12280 c -7,-10 -9,-30 -6,-40 3,-10 -3,0 -15,10 -24,30 -49,40 -49,10 0,-20 34,-50 107,-90 76,-40 89,-40 45,0 -32,20 -70,80 -55,80 5,0 30,-20 57,-50 62,-60 124,-90 201,-100 60,0 60,0 28,10 -17,10 -44,40 -59,60 -15,20 -30,40 -35,40 -16,0 -20,-20 -8,-40 23,-50 -13,0 -40,50 -31,50 -61,70 -61,20 0,-20 11,-40 33,-60 25,-30 27,-30 9,-20 -13,10 -44,40 -69,70 -48,60 -62,70 -83,50 z"
       id="path4"
       style="fill:#000000;fill-opacity:1;stroke-width:1.02786" />
    <path
       d="m 2560,12080 c 0,-10 7,-20 15,-20 8,0 15,10 15,20 0,0 -7,10 -15,10 -8,0 -15,-10 -15,-10 z"
       id="path5"
       style="fill:#000000;fill-opacity:1;stroke-width:1.02786" />
    <path
       d="m 511,11520 c -23,-30 -43,-220 -23,-220 4,0 14,20 21,40 12,50 45,90 56,80 2,0 -2,-20 -10,-30 -26,-50 -45,-130 -45,-190 0,-60 21,-140 42,-170 11,-20 13,-10 13,30 0,40 6,60 23,90 12,10 22,40 22,40 0,30 -26,20 -44,0 -9,-10 -16,-20 -16,-20 0,20 28,60 59,100 24,30 29,50 20,60 -6,0 -17,10 -23,10 -18,0 -52,-40 -64,-70 -7,-30 -11,-30 -11,-10 -1,10 15,50 35,90 20,40 34,90 31,90 -8,20 -48,30 -66,10 -7,-10 -3,0 9,20 22,40 20,60 -4,60 -8,0 -19,-10 -25,-10 z"
       id="path6"
       style="fill:#000000;fill-opacity:1;stroke-width:1.02786" />
    <path
       d="m 1231,10830 c 0,-10 3,-10 6,0 3,10 2,10 -1,20 -3,0 -6,0 -5,-20 z"
       id="path7"
       style="fill:#000000;fill-opacity:1;stroke-width:1.02786" />
    <path
       d="m 1464,10820 c -10,-10 -37,-30 -59,-40 -22,-10 -33,-20 -24,-20 20,0 109,60 109,70 0,20 -5,10 -26,-10 z"
       id="path8"
       style="fill:#000000;fill-opacity:1;stroke-width:1.02786" />
    <path
       d="m 1240,10800 c 0,-10 47,-40 62,-40 8,10 6,10 -4,10 -10,0 -27,10 -38,20 -11,10 -20,20 -20,10 z"
       id="path9"
       style="fill:#000000;fill-opacity:1;stroke-width:1.02786" />
    <path
       d="m 520,10510 c 0,-10 10,-20 23,-30 12,-10 16,-20 9,-10 -15,0 -42,-20 -42,-30 0,-10 23,-40 51,-60 28,-20 60,-50 72,-70 20,-20 19,-20 -16,10 -44,40 -87,40 -87,10 0,-10 12,-30 43,-40 23,-10 51,-30 62,-40 l 20,-20 -27,10 c -39,30 -50,0 -12,-30 16,-10 33,-20 37,-20 4,0 17,-20 27,-40 l 20,-40 v 40 c 0,80 -35,160 -102,220 -39,40 -53,60 -41,60 9,0 37,-20 61,-40 l 43,-40 -21,40 c -22,60 -55,110 -78,130 -23,20 -42,10 -42,-10 z"
       id="path10"
       style="fill:#000000;fill-opacity:1;stroke-width:1.02786" />
    <path
       d="m 706,10230 c -3,0 1,-10 8,-20 16,-10 32,0 21,20 -8,10 -22,10 -29,0 z"
       id="path11"
       style="fill:#000000;fill-opacity:1;stroke-width:1.02786" />
    <path
       d="m 4150,12370 c 0,-10 111,-10 313,-10 217,0 307,0 295,-10 -22,-10 -24,-30 -3,-30 8,10 15,10 15,0 0,-10 37,-10 46,0 5,10 2,10 -11,10 -18,-10 -18,-10 0,10 10,10 25,20 33,20 13,0 12,0 -4,-20 -18,-10 -18,-10 0,-10 15,10 17,10 7,0 -22,-30 9,-30 36,-10 15,10 23,20 19,10 -10,-10 19,-10 33,0 6,10 25,20 41,20 32,10 95,-10 83,-20 -5,-10 -2,-10 6,0 7,0 16,0 20,-10 3,0 25,-20 49,-30 23,-10 42,-20 42,-30 0,0 -9,0 -19,10 -28,10 -36,10 -21,0 6,-10 35,-30 63,-40 29,-20 108,-60 176,-100 146,-80 203,-100 316,-120 46,-10 101,-30 121,-30 34,-20 36,-20 41,0 5,20 11,20 32,20 82,-20 91,-20 91,0 0,10 8,10 52,10 34,0 52,0 55,10 3,10 -11,10 -49,10 h -53 l 40,10 c 22,10 75,10 118,10 72,0 81,-10 103,-30 45,-60 28,-130 -34,-140 -13,-10 -22,-10 -19,-20 11,-10 69,30 83,50 33,70 -20,140 -104,160 -81,10 -80,10 13,50 l 90,50 10,-40 11,-30 17,30 c 19,50 28,50 69,20 l 30,-20 -8,20 c -18,60 -14,60 81,100 149,60 216,80 350,80 114,0 123,-10 186,-40 37,-10 85,-40 108,-60 46,-50 104,-160 99,-190 l -3,-20 -24,20 c -20,30 -30,30 -64,30 -59,-10 -96,-50 -94,-100 3,-70 37,-100 98,-100 25,0 51,10 58,10 9,10 9,10 -2,-10 -45,-90 -166,-140 -261,-100 -98,50 -135,210 -66,290 59,80 190,90 258,30 12,-10 22,-20 22,-10 0,30 -114,80 -171,60 -43,0 -99,-30 -120,-60 -50,-50 -64,-150 -33,-230 30,-70 4,-240 -54,-350 -15,-30 -27,-60 -28,-70 -2,-30 -54,-90 -101,-120 -145,-100 -323,-70 -384,70 -26,50 -25,160 2,160 6,0 5,-10 -1,-20 -6,-10 -9,-30 -7,-40 4,-10 5,-10 6,10 0,10 10,30 21,40 10,20 17,30 13,30 -11,10 49,20 99,20 38,-10 58,0 79,10 l 27,10 -21,30 c -15,20 -29,30 -51,30 -45,0 -109,-30 -140,-70 -15,-20 -23,-20 -17,-10 16,30 89,90 122,100 70,10 144,-20 175,-80 28,-60 18,-150 -16,-150 -25,0 -35,-20 -19,-40 12,-10 14,-10 26,10 12,10 13,10 13,-10 0,-20 -7,-30 -21,-30 -24,-10 -42,-50 -25,-60 6,-10 -7,-10 -29,-10 -38,10 -40,10 -40,40 0,40 -19,50 -35,20 -12,-20 -1,-50 28,-70 22,-10 1,-10 -32,0 -37,10 -66,50 -66,80 0,20 25,40 42,20 7,0 4,-10 -8,-10 -11,0 -19,0 -19,-10 0,-10 9,-10 20,-10 15,0 20,0 20,20 0,30 -42,40 -62,10 -12,-10 -13,-10 -13,10 0,30 24,50 42,50 15,-10 58,30 58,40 0,20 -59,10 -84,-20 -47,-50 -43,-130 8,-170 9,-10 14,-20 11,-20 -3,0 17,-10 45,-20 85,-20 189,10 271,90 22,20 45,40 51,50 6,20 -14,0 -43,-30 -71,-60 -187,-130 -130,-70 25,30 38,90 24,120 -7,10 -5,30 4,50 18,60 5,110 -32,160 -31,40 -31,40 -2,40 69,0 179,90 218,170 29,70 26,170 -9,230 -90,170 -362,150 -362,-30 0,-50 27,-100 72,-130 45,-30 59,-20 18,0 -52,40 -73,70 -73,120 0,30 7,60 16,70 21,30 67,60 92,60 13,0 4,-10 -22,-20 -84,-40 -97,-130 -27,-200 33,-30 40,-30 86,-30 33,10 57,10 71,30 l 22,20 -30,-10 c -16,-10 -40,-20 -53,-20 -82,0 -133,100 -78,160 59,50 168,30 213,-60 27,-50 30,-120 7,-180 -9,-20 -17,-40 -18,-50 -1,-30 -83,-90 -139,-100 -60,-20 -171,-10 -257,20 -41,20 -67,20 -56,20 10,-10 40,-30 67,-40 52,-10 60,-20 31,-30 -10,-10 -33,-20 -51,-40 -100,-100 -102,-260 -4,-350 54,-50 91,-60 183,-60 74,0 92,0 143,20 145,80 237,250 240,450 1,50 4,90 6,90 2,0 16,-10 33,-20 80,-70 221,-60 299,30 54,50 74,110 74,200 0,60 -4,80 -28,130 -37,80 -128,160 -204,190 -125,50 -326,30 -495,-30 -85,-40 -99,-40 -63,-20 17,10 71,30 120,50 50,10 85,30 78,30 -16,0 -164,-50 -219,-70 -47,-20 -79,-20 -70,10 4,10 9,20 13,40 l 6,20 -35,-20 c -36,-20 -41,-20 -62,20 -6,10 152,10 774,10 h 780 v -720 -720 l -50,-20 c -20,-10 -40,-10 -50,-10 0,10 10,50 40,160 20,30 30,80 30,100 10,20 0,0 -20,-40 -30,-80 -60,-150 -60,-150 -10,0 0,20 20,50 80,200 100,410 40,550 -40,70 -120,150 -190,190 -40,20 -70,30 -130,20 -80,0 -145,-20 -199,-70 -56,-60 -74,-100 -69,-190 3,-60 7,-70 36,-110 l 33,-40 h -88 c -317,0 -548,-220 -478,-470 55,-190 304,-230 425,-70 l 35,50 26,-60 c 33,-70 36,-60 8,20 -16,40 -22,80 -23,150 -1,100 19,150 81,210 20,20 31,30 24,20 -11,-20 -4,-20 40,10 69,30 129,30 189,0 80,-40 110,-140 70,-200 -20,-30 -30,-40 -70,-40 -40,0 -80,30 -90,70 -10,30 -10,40 0,70 l 20,40 -20,-30 c -20,-20 -20,-30 -20,-70 0,-50 0,-50 30,-90 30,-20 50,-30 80,-30 70,0 110,40 130,140 10,10 10,0 0,-30 0,-80 -70,-140 -140,-130 -50,10 -100,50 -120,100 -3,10 -9,20 -10,10 -1,-60 110,-140 180,-120 40,0 90,50 110,90 20,50 10,150 -20,200 -50,80 -170,120 -276,90 -97,-20 -182,-110 -207,-210 l -13,-50 -20,20 c -10,10 -31,30 -46,40 -29,10 -110,10 -143,0 -11,0 -32,0 -47,0 -35,10 -92,0 -114,-30 l -16,-20 7,20 c 10,40 59,110 92,140 118,110 339,170 478,130 135,-50 265,30 285,160 0,60 -10,110 -50,150 -20,20 -30,40 -30,40 0,0 -10,20 -20,30 -30,20 -20,30 10,30 90,-20 190,-100 240,-210 20,-50 30,-70 30,-160 0,-150 -20,-250 -100,-430 l -20,-50 -30,10 c -50,20 -50,20 -20,-20 l 20,-40 -30,-10 c -40,-30 -40,-40 0,-40 10,0 20,0 20,0 0,-20 -80,-180 -90,-180 -10,0 -10,20 -10,40 0,90 -50,140 -120,140 -73,0 -107,-90 -52,-140 l 32,-20 -27,20 c -48,60 -17,130 57,130 40,0 90,-40 90,-100 10,-40 -10,-200 -20,-200 0,0 0,20 0,50 10,40 0,80 -20,70 0,-10 0,-30 0,-60 0,-50 0,-60 -20,-50 -10,0 -10,0 -10,-30 20,-80 20,-90 10,-90 -20,0 -20,-20 -10,-50 10,-10 20,-60 30,-110 20,-120 30,-160 110,-300 40,-68 90,-153 110,-191 30,-70 60,-101 50,-58 -10,16 0,10 20,-16 10,-27 20,-50 20,-72 0,-17 0,-29 0,-27 10,3 10,15 10,27 0,15 10,9 20,-18 10,-44 10,-90 -20,-118 -10,-14 -10,-20 0,-26 10,-5 10,-12 -10,-26 -30,-23 -30,-38 0,-30 20,6 20,6 0,-25 -10,-25 -10,-32 0,-39 10,-5 10,-14 10,-20 -20,-18 10,-12 30,7 10,14 10,-37 10,-292 0,-171 0,-312 10,-315 0,-2 0,831 0,1849 v 1860 H 6005 c -1230,0 -1855,0 -1855,-10 z m 2120,-50 v -30 l -47,10 h -48 l 35,-30 34,-30 -33,-30 c -32,-40 -32,-40 -10,-30 13,0 2,-10 -26,-20 -57,-30 -92,-30 -88,10 3,20 0,20 -16,10 -16,-10 -23,-10 -35,10 l -16,20 v -20 c 0,-20 -5,-30 -21,-30 -18,0 -19,0 -9,-10 10,-20 9,-20 -6,-40 -18,-20 -18,-20 11,-10 39,0 12,-10 -28,-20 -20,-10 -27,-10 -22,0 4,10 -8,0 -26,-10 -43,-20 -239,-30 -322,-10 -68,10 -164,60 -197,100 -20,20 -21,20 -6,20 10,0 14,10 10,10 -5,10 -1,10 14,0 31,-20 103,-10 124,10 44,40 6,70 -99,80 -82,10 -111,20 -152,50 l -24,30 16,-30 c 19,-30 22,-40 6,-30 -6,0 -4,-10 5,-30 9,-10 16,-30 16,-30 0,-10 -26,0 -57,20 -32,20 -91,50 -133,70 l -75,30 h 613 612 z m -908,-90 c 20,-20 20,-20 0,-20 -12,0 -29,10 -41,30 -27,50 -27,60 0,30 11,-10 29,-30 41,-40 z m 1245,-70 c -3,0 -12,0 -19,0 -8,10 -5,10 6,10 11,0 17,0 13,-10 z m 68,-30 c 33,-30 66,-80 65,-100 -1,0 -8,10 -17,30 -21,40 -43,60 -78,80 -16,10 -25,20 -18,20 7,0 28,-10 48,-30 z m -600,-60 c -3,0 -14,-10 -23,-10 -15,0 -15,0 -2,10 20,10 33,10 25,0 z m -108,-50 c -3,0 -12,0 -19,0 -8,10 -5,10 6,10 11,0 17,0 13,-10 z m 780,-80 c -2,-20 -4,-10 -4,30 0,30 2,40 4,30 2,-20 2,-40 0,-60 z m 414,50 c 13,-10 12,-10 -8,0 -20,10 -26,10 -45,0 -21,-10 -22,-10 -9,0 7,10 21,20 31,20 10,0 24,-10 31,-20 z m -57,-50 c 3,0 2,-10 -4,0 -6,0 -10,10 -10,10 0,20 7,10 14,-10 z m 57,0 c -10,-10 -11,-10 -5,0 3,10 9,20 12,20 3,-10 0,-20 -7,-20 z m -440,-90 c -10,-10 -11,-10 -5,0 3,10 9,20 12,20 3,-10 0,-20 -7,-20 z m 646,-140 c -8,-10 -15,-40 -15,-60 -1,-90 98,-130 168,-70 30,20 30,30 30,50 -10,30 10,20 40,-20 20,-40 30,-110 10,-160 -40,-90 -150,-130 -247,-90 -72,30 -113,90 -113,170 0,60 23,100 78,150 42,40 82,60 49,30 z m 113,-40 c 10,-10 10,-10 -10,0 -20,10 -20,10 -40,0 -20,-10 -20,-10 -10,0 10,10 20,20 30,20 10,0 20,-10 30,-20 z m -60,-50 c 10,0 10,-10 0,0 -10,0 -10,10 -10,10 0,20 10,10 10,-10 z m 60,-10 c -10,0 -30,-10 -30,-10 -10,0 0,10 10,10 10,10 20,20 20,20 0,10 0,10 10,10 0,-10 0,-20 -10,-30 z m -10,-350 c -10,0 -30,0 -40,0 -10,10 0,10 20,10 30,0 40,0 20,-10 z m -614,-60 c -81,-80 -109,-150 -104,-240 3,-60 8,-80 31,-120 27,-30 91,-80 118,-80 8,0 -2,10 -21,20 -39,10 -76,50 -92,80 -8,10 -3,10 23,-10 29,-30 39,-30 81,-30 66,10 118,60 102,110 -9,20 -54,-20 -54,-40 0,-30 -14,-40 -50,-50 l -25,-10 23,20 c 12,10 22,30 22,30 0,10 -29,40 -39,40 -14,0 -33,-30 -26,-40 10,-20 33,-10 38,10 4,10 5,10 6,-10 3,-50 -75,-20 -103,30 -23,50 -20,60 9,40 28,-30 47,-40 65,-10 19,20 -3,40 -26,20 -14,-10 -18,-10 -30,10 -16,20 -19,70 -4,80 6,0 10,0 10,-10 0,-30 36,-10 49,20 6,10 19,20 32,20 18,0 19,0 9,-10 -14,-20 -6,-40 16,-40 13,0 18,10 15,40 -3,30 111,30 157,0 88,-50 96,-170 18,-260 -11,-10 -30,-30 -41,-30 -14,-10 -12,0 6,10 69,60 92,160 44,190 -32,30 -32,30 -49,-10 -12,-20 -13,-30 -5,-70 13,-40 0,-100 -33,-130 -24,-20 -106,-40 -95,-20 4,0 -3,10 -17,0 -62,-10 -156,80 -176,160 -25,110 14,220 106,300 31,30 58,50 61,50 3,0 -20,-30 -51,-60 z m 684,50 c 50,-20 110,-100 110,-130 0,0 -10,10 -20,30 -20,40 -50,70 -90,90 -30,10 -40,20 -30,20 10,0 20,0 30,-10 z m 310,-390 c 0,-50 -10,-60 -40,-30 l -20,20 30,30 c 10,20 20,30 30,30 0,0 0,-20 0,-50 z m 0,-690 c 0,-337 0,-609 -10,-604 0,5 -20,39 -30,75 -20,36 -40,92 -60,125 -40,60 -40,77 -10,54 0,-7 10,-10 20,-8 0,3 -10,16 -30,28 -20,12 -40,30 -40,39 0,14 10,10 40,-18 20,-20 50,-45 70,-55 l 40,-20 -30,33 c -30,37 -40,47 -50,150 -10,71 -30,111 -50,111 -10,0 -20,-10 -30,-20 -20,-20 -30,-91 -10,-118 10,-11 0,-21 0,-29 -30,-25 -100,76 -130,197 -20,90 -10,270 10,320 10,20 20,30 10,30 -10,-10 -10,0 10,40 10,30 10,30 10,10 0,-20 0,-20 20,-10 20,20 20,20 30,0 20,-10 20,-10 20,10 0,20 0,30 20,30 h 20 l -20,20 c -20,10 -20,10 0,30 10,20 10,20 -10,20 -20,-10 -30,-10 -30,10 -10,30 20,120 30,100 10,-20 10,-20 40,10 l 20,30 30,-30 30,-30 v 40 c -10,40 0,50 50,50 20,0 20,-10 20,-620 z m -300,400 c -10,-10 -10,-10 0,10 0,10 10,20 10,10 0,-10 0,-20 -10,-20 z m 290,-1230 c -10,-18 -20,-30 -30,-27 0,2 10,18 20,35 10,17 20,29 20,27 0,-2 -10,-17 -10,-35 z"
       id="path12"
       style="fill:#000000;fill-opacity:1;stroke-width:1.02786" />
    <path
       d="m 5883,12260 c -15,-20 -43,-50 -62,-70 -32,-30 -33,-30 -12,0 12,10 21,40 21,60 0,40 -30,20 -60,-30 -14,-30 -31,-50 -39,-60 -11,-10 -12,-10 -2,10 28,50 -5,60 -40,0 -13,-20 -40,-40 -59,-50 l -35,-20 h 60 c 77,10 143,40 204,100 27,30 51,50 55,50 14,0 -26,-60 -56,-80 -44,-40 -31,-40 45,0 73,40 107,70 107,90 0,30 -27,30 -42,0 -12,-20 -12,-20 -22,0 -17,40 -32,30 -63,0 z"
       id="path13"
       style="fill:#000000;fill-opacity:1;stroke-width:1.02786" />
    <path
       d="m 5690,12080 c 0,-10 7,-20 15,-20 8,0 15,10 15,20 0,0 -7,10 -15,10 -8,0 -15,-10 -15,-10 z"
       id="path14"
       style="fill:#000000;fill-opacity:1;stroke-width:1.02786" />
    <path
       d="m 7042,10830 c 0,-10 2,-20 5,-10 2,0 2,20 0,20 -3,10 -5,0 -5,-10 z"
       id="path15"
       style="fill:#000000;fill-opacity:1;stroke-width:1.02786" />
    <path
       d="m 7000,10780 c -19,-10 -28,-20 -19,-20 9,0 27,10 40,20 29,20 25,20 -21,0 z"
       id="path16"
       style="fill:#000000;fill-opacity:1;stroke-width:1.02786" />
    <path
       d="m 7720,10520 c -20,-20 -50,-70 -80,-120 l -20,-50 40,40 c 30,20 50,40 60,40 20,0 0,-20 -30,-50 -70,-70 -100,-130 -110,-210 v -60 l 20,40 c 10,20 30,40 30,40 0,0 20,10 30,20 40,30 30,60 -10,30 l -20,-10 20,20 c 10,10 30,30 60,40 30,10 40,30 40,40 0,30 -40,30 -80,-10 -20,-10 0,10 40,40 60,60 60,70 50,90 0,10 -20,10 -20,10 -20,0 -20,10 10,20 10,20 20,30 20,40 -10,10 -30,10 -50,0 z"
       id="path17"
       style="fill:#000000;fill-opacity:1;stroke-width:1.02786" />
    <path
       d="m 7540,10230 c -10,-20 20,-40 30,-20 10,10 10,30 -10,30 0,0 -10,0 -20,-10 z"
       id="path18"
       style="fill:#000000;fill-opacity:1;stroke-width:1.02786" />
    <path
       d="m 996,12330 c -6,-10 9,-20 34,-30 8,-10 3,-10 -13,-10 -15,0 -45,10 -67,20 -47,20 -69,30 -77,0 -8,-20 17,-40 73,-50 69,-20 20,-20 -76,0 -64,10 -83,10 -95,0 -20,-20 -19,-30 2,-50 17,-20 17,-20 -9,-10 -31,20 -58,10 -58,-10 0,-40 103,-40 207,0 l 38,10 h -43 c -36,0 -112,20 -112,30 0,0 55,10 122,10 121,0 124,0 185,30 34,20 70,40 79,50 17,20 16,20 -15,10 -30,-10 -79,-10 -142,10 -15,0 -29,0 -33,-10 z"
       id="path19"
       style="fill:#000000;fill-opacity:1;stroke-width:1.02786" />
    <path
       d="m 7094,12320 c 9,-10 45,-30 79,-50 61,-30 64,-30 185,-30 72,0 122,-10 122,-10 0,-10 -80,-30 -112,-30 h -43 l 60,-20 c 115,-40 215,-30 185,20 -10,10 -10,10 -40,0 -40,-10 -40,-10 -30,10 20,20 20,30 10,50 -20,10 -40,10 -100,0 -96,-20 -145,-20 -76,0 56,10 86,30 76,50 -10,30 -33,20 -80,0 -22,-10 -52,-20 -67,-20 h -28 l 24,10 c 13,10 22,20 20,30 -4,10 -16,10 -91,-10 -27,0 -60,0 -79,10 -31,10 -32,10 -15,-10 z"
       id="path20"
       style="fill:#000000;fill-opacity:1;stroke-width:1.02786" />
    <path
       d="m 1370,12310 c -64,-10 -100,-20 -100,-50 0,-20 28,-20 56,0 25,10 26,10 16,-10 -12,-20 1,-50 22,-50 7,0 47,20 89,40 42,10 84,30 94,30 10,0 0,-10 -22,-20 -47,-20 -68,-40 -63,-70 5,-20 22,-20 71,20 25,10 59,40 74,40 l 28,10 -27,-20 c -16,-10 -28,-30 -28,-30 0,-20 42,-10 73,10 22,20 46,20 85,30 h 54 l -54,20 c -44,20 -68,30 -143,30 -77,0 -98,-10 -149,-30 -32,-20 -63,-30 -69,-30 -26,0 35,40 84,60 48,20 50,20 22,20 -17,0 -37,0 -45,0 -7,10 -38,0 -68,0 z"
       id="path21"
       style="fill:#000000;fill-opacity:1;stroke-width:1.02786" />
    <path
       d="m 6819,12290 c 49,-20 110,-60 84,-60 -6,0 -37,10 -69,30 -79,30 -213,40 -286,0 -27,-10 -48,-20 -48,-20 0,0 22,0 49,-10 33,0 59,0 79,-20 31,-20 72,-30 72,-10 0,0 -12,20 -27,30 l -28,20 30,-10 c 17,-10 50,-30 74,-50 47,-30 64,-30 69,-10 5,30 -16,50 -63,70 -26,10 -33,20 -20,20 11,0 53,-20 94,-30 81,-40 93,-50 110,-30 9,20 10,20 1,40 -11,20 -11,20 14,10 29,-20 56,-20 56,10 0,20 -63,40 -157,40 h -88 z"
       id="path22"
       style="fill:#000000;fill-opacity:1;stroke-width:1.02786" />
    <path
       d="m 635,12160 c 15,-20 99,-110 186,-200 87,-90 176,-190 198,-220 53,-70 108,-190 124,-260 l 14,-50 47,-10 c 62,-10 140,-50 217,-100 131,-90 316,-290 363,-400 l 19,-40 h 59 58 v 60 c 0,60 -2,60 -25,70 -86,20 -329,240 -420,380 -56,80 -95,170 -95,220 0,30 -4,30 -52,40 -67,20 -182,70 -244,110 -41,30 -129,110 -423,380 -40,40 -47,50 -26,20 z"
       id="path23"
       style="fill:#000000;fill-opacity:1;stroke-width:1.02786" />
    <path
       d="m 7490,12020 c -100,-90 -204,-190 -240,-220 -71,-60 -216,-130 -296,-150 l -51,-10 -6,-50 c -13,-110 -95,-230 -244,-380 -104,-110 -192,-170 -250,-200 l -43,-10 v -60 -60 h 59 59 l 27,60 c 57,110 233,300 373,390 67,50 163,90 221,90 20,0 26,10 37,60 19,70 85,210 134,270 22,30 113,130 200,220 150,150 200,210 190,210 0,0 -80,-70 -170,-160 z"
       id="path24"
       style="fill:#000000;fill-opacity:1;stroke-width:1.02786" />
    <path
       d="m 2900,12100 c -47,-30 -90,-80 -90,-110 0,-10 5,-20 10,-10 6,0 10,10 10,30 0,30 80,90 150,100 l 35,10 h -35 c -20,0 -55,-10 -80,-20 z"
       id="path25"
       style="fill:#000000;fill-opacity:1;stroke-width:1.02786" />
    <path
       d="m 5275,12120 c 6,-10 26,-10 46,-10 51,-10 129,-70 129,-100 0,-20 5,-30 10,-30 19,-20 10,30 -12,60 -29,40 -102,80 -148,80 -19,0 -30,0 -25,0 z"
       id="path26"
       style="fill:#000000;fill-opacity:1;stroke-width:1.02786" />
    <path
       d="m 593,12060 c 5,-40 4,-40 -12,-30 -13,10 -24,10 -37,0 -19,-20 -17,-30 12,-180 2,-10 0,-20 -6,-20 -5,0 -10,10 -10,20 0,30 -42,90 -58,80 -18,-10 -15,-50 8,-90 11,-20 20,-50 19,-70 l -1,-20 -7,20 c -8,30 -41,40 -41,20 0,-10 5,-40 12,-60 9,-40 9,-60 1,-90 -10,-40 -10,-40 9,-20 10,10 33,40 51,80 31,60 32,70 32,180 -1,70 2,120 7,110 11,0 28,-70 29,-110 v -30 l 16,40 c 8,20 16,70 16,120 2,70 1,80 -22,80 -22,0 -24,0 -18,-30 z"
       id="path27"
       style="fill:#000000;fill-opacity:1;stroke-width:1.02786" />
    <path
       d="m 7650,12070 c -10,-20 -10,-90 10,-160 10,-30 20,-60 20,-40 10,50 20,120 30,120 0,10 10,-40 10,-110 0,-110 0,-120 30,-180 20,-40 40,-70 50,-90 20,-10 20,-10 20,10 -20,20 -20,90 0,140 0,30 0,40 -10,40 -10,0 -20,-10 -30,-30 l -10,-20 v 20 c 0,20 10,50 20,70 20,40 30,80 10,90 -20,10 -50,-40 -60,-90 -10,-40 -10,-40 0,20 0,40 0,100 10,120 0,40 0,50 -10,50 -10,10 -30,10 -40,0 -20,-10 -20,-10 -10,30 0,30 0,30 -20,30 -10,0 -20,-10 -20,-20 z"
       id="path28"
       style="fill:#000000;fill-opacity:1;stroke-width:1.02786" />
    <path
       d="m 2965,12050 c 0,-20 -5,-30 -23,-30 -13,0 -30,0 -39,10 -14,10 -13,10 1,-10 15,-20 16,-30 6,-40 -20,-30 -39,-20 -49,10 l -9,40 -1,-40 c -1,-50 7,-70 24,-70 16,0 55,50 55,70 0,10 10,20 22,30 24,10 36,40 21,50 -5,10 -9,0 -8,-20 z"
       id="path29"
       style="fill:#000000;fill-opacity:1;stroke-width:1.02786" />
    <path
       d="m 5304,12070 c -9,-30 3,-50 26,-60 11,0 20,-10 20,-20 0,-20 39,-70 55,-70 17,0 25,20 24,70 l -1,40 -9,-40 c -10,-30 -29,-40 -49,-10 -10,10 -9,20 6,40 14,20 15,20 1,10 -9,-10 -26,-10 -39,-10 -18,0 -23,10 -23,30 1,30 -3,40 -11,20 z"
       id="path30"
       style="fill:#000000;fill-opacity:1;stroke-width:1.02786" />
    <path
       d="m 1683,12060 c -40,-20 -42,-80 -1,-100 26,-10 81,0 101,20 8,10 18,30 22,50 7,30 7,30 -12,-10 -33,-60 -108,-70 -108,0 0,20 6,30 25,30 18,0 21,10 10,10 -8,10 -25,0 -37,0 z"
       id="path31"
       style="fill:#000000;fill-opacity:1;stroke-width:1.02786" />
    <path
       d="m 6559,12060 c -8,-10 -5,-10 12,-10 19,0 24,-10 24,-30 0,-70 -76,-60 -107,0 -10,20 -18,30 -18,20 0,-30 30,-70 59,-80 40,-20 79,-10 93,30 20,40 -24,90 -63,70 z"
       id="path32"
       style="fill:#000000;fill-opacity:1;stroke-width:1.02786" />
    <path
       d="m 2598,11980 c -25,-30 -28,-60 -7,-80 33,-50 109,-20 109,30 0,60 -69,90 -102,50 z"
       id="path33"
       style="fill:#000000;fill-opacity:1;stroke-width:1.02786" />
    <path
       d="m 5595,11970 c -31,-40 -7,-90 50,-100 32,0 66,40 58,70 -14,60 -78,80 -108,30 z"
       id="path34"
       style="fill:#000000;fill-opacity:1;stroke-width:1.02786" />
    <path
       d="m 2720,11980 c 0,0 5,-10 10,-10 6,0 10,10 10,10 0,10 -4,10 -10,10 -5,0 -10,0 -10,-10 z"
       id="path35"
       style="fill:#000000;fill-opacity:1;stroke-width:1.02786" />
    <path
       d="m 5540,11980 c 0,0 5,-10 10,-10 6,0 10,10 10,10 0,10 -4,10 -10,10 -5,0 -10,0 -10,-10 z"
       id="path36"
       style="fill:#000000;fill-opacity:1;stroke-width:1.02786" />
    <path
       d="m 2137,11900 c -15,-20 -24,-30 -19,-30 5,0 19,10 32,30 30,30 23,30 -13,0 z"
       id="path37"
       style="fill:#000000;fill-opacity:1;stroke-width:1.02786" />
    <path
       d="m 6137,11890 c 12,-10 24,-20 27,-20 2,0 -8,10 -22,20 l -27,20 z"
       id="path38"
       style="fill:#000000;fill-opacity:1;stroke-width:1.02786" />
    <path
       d="m 1927,11870 c -14,-20 -32,-30 -40,-30 -22,0 -42,-30 -30,-40 8,-10 11,-10 10,10 -2,10 4,20 29,10 25,0 31,10 27,20 -3,10 2,20 12,20 21,10 35,0 36,-20 0,-10 5,0 9,10 17,60 -14,70 -53,20 z"
       id="path39"
       style="fill:#000000;fill-opacity:1;stroke-width:1.02786" />
    <path
       d="m 6301,11860 c 0,-30 1,-30 9,-10 10,20 18,20 39,10 8,0 11,-10 6,-30 -6,-20 -5,-20 13,-10 26,20 56,10 47,-20 -5,-10 -4,-10 6,0 14,10 -4,40 -28,40 -8,0 -26,10 -40,30 -35,40 -53,40 -52,-10 z"
       id="path40"
       style="fill:#000000;fill-opacity:1;stroke-width:1.02786" />
    <path
       d="m 1999,11850 c -1,-10 -1,-20 0,-20 1,-10 -51,-50 -86,-60 -20,0 -49,-10 -67,0 h -31 l 33,-10 c 67,-20 162,30 162,90 0,20 -9,30 -11,0 z"
       id="path41"
       style="fill:#000000;fill-opacity:1;stroke-width:1.02786" />
    <path
       d="m 6271,11850 c -2,-60 96,-110 163,-90 29,10 29,10 -15,10 -65,0 -120,30 -135,70 -12,30 -12,30 -13,10 z"
       id="path42"
       style="fill:#000000;fill-opacity:1;stroke-width:1.02786" />
    <path
       d="m 7730,11520 c -10,-10 0,-30 10,-50 10,-20 20,-30 10,-20 -20,20 -60,10 -70,-10 0,0 10,-50 30,-90 20,-40 40,-80 40,-90 0,-10 -10,0 -10,20 -20,30 -50,60 -70,60 -20,-10 -20,-50 -10,-60 20,0 70,-90 70,-100 0,-10 -10,0 -20,10 -10,20 -40,30 -40,10 0,0 10,-30 30,-60 10,-20 20,-60 20,-80 v -40 l 20,40 c 40,70 30,210 0,300 -20,30 -20,60 -20,60 20,0 50,-50 60,-90 0,-10 10,-30 10,-40 20,-10 10,170 -10,210 -20,30 -40,40 -50,20 z"
       id="path43"
       style="fill:#000000;fill-opacity:1;stroke-width:1.02786" />
    <path
       d="m 6242,11430 c 0,-10 2,-20 5,-10 2,0 2,20 0,20 -3,10 -5,0 -5,-10 z"
       id="path44"
       style="fill:#000000;fill-opacity:1;stroke-width:1.02786" />
    <path
       d="m 2027,11410 c -4,-20 -24,-50 -51,-80 -47,-40 -49,-50 -10,-20 31,20 77,90 72,120 -2,10 -7,0 -11,-20 z"
       id="path45"
       style="fill:#000000;fill-opacity:1;stroke-width:1.02786" />
    <path
       d="m 6250,11400 c 0,-20 41,-80 65,-90 38,-30 40,-20 4,10 -17,10 -40,40 -50,60 -11,10 -19,20 -19,20 z"
       id="path46"
       style="fill:#000000;fill-opacity:1;stroke-width:1.02786" />
    <path
       d="m 763,11140 c -26,-10 -38,-40 -24,-70 9,-10 10,-10 11,10 0,20 6,30 27,40 33,10 57,-20 48,-60 -9,-30 -23,-50 -59,-60 -26,-10 -27,-10 -8,-10 33,0 60,20 77,50 21,40 19,60 -10,90 -26,20 -30,20 -62,10 z"
       id="path47"
       style="fill:#000000;fill-opacity:1;stroke-width:1.02786" />
    <path
       d="m 7470,11140 c -30,-20 -40,-50 -30,-80 10,-50 40,-70 80,-70 20,0 20,0 -10,10 -40,20 -60,60 -50,100 10,20 20,20 40,20 20,0 30,-10 30,-30 0,-20 20,-30 20,0 0,40 -50,70 -80,50 z"
       id="path48"
       style="fill:#000000;fill-opacity:1;stroke-width:1.02786" />
    <path
       d="m 1031,10930 c -1,-60 -28,-110 -61,-130 -23,-10 -23,-10 -4,-10 11,0 29,10 38,20 25,30 44,100 35,140 -6,20 -7,20 -8,-20 z"
       id="path49"
       style="fill:#000000;fill-opacity:1;stroke-width:1.02786" />
    <path
       d="m 7244,10910 c 2,-70 33,-120 69,-120 h 22 l -22,10 c -33,10 -55,50 -64,120 l -8,60 z"
       id="path50"
       style="fill:#000000;fill-opacity:1;stroke-width:1.02786" />
    <path
       d="m 967,10930 c -4,0 -7,-10 -7,-20 0,0 -13,-20 -30,-40 -53,-40 -36,-70 30,-50 l 25,10 h -27 c -28,0 -35,10 -19,40 7,10 13,10 32,0 20,-10 22,-10 12,0 -7,10 -13,30 -13,40 0,20 4,20 25,20 13,0 22,0 19,0 -6,10 -38,10 -47,0 z"
       id="path51"
       style="fill:#000000;fill-opacity:1;stroke-width:1.02786" />
    <path
       d="m 7308,10920 c 2,-20 -2,-40 -9,-50 -13,-10 -12,-10 9,0 27,10 42,10 42,-20 0,-10 -7,-20 -27,-20 h -28 l 25,-10 c 66,-20 80,10 30,50 -16,20 -30,40 -30,40 0,10 -4,20 -9,20 -4,10 -6,0 -3,-10 z"
       id="path52"
       style="fill:#000000;fill-opacity:1;stroke-width:1.02786" />
    <path
       d="m 817,10200 c -38,-40 -8,-100 49,-100 51,0 76,80 36,110 -25,20 -66,10 -85,-10 z"
       id="path53"
       style="fill:#000000;fill-opacity:1;stroke-width:1.02786" />
    <path
       d="m 7378,10210 c -22,-20 -25,-60 -8,-90 30,-40 110,-20 110,40 0,50 -60,80 -102,50 z"
       id="path54"
       style="fill:#000000;fill-opacity:1;stroke-width:1.02786" />
    <path
       d="m 805,10070 c -6,-10 9,-20 19,-10 9,10 7,20 -3,20 -6,0 -12,0 -16,-10 z"
       id="path55"
       style="fill:#000000;fill-opacity:1;stroke-width:1.02786" />
    <path
       d="m 7460,10070 c -10,0 -10,-10 0,-10 0,-10 10,-10 10,0 10,0 10,10 0,10 0,10 -10,10 -10,0 z"
       id="path56"
       style="fill:#000000;fill-opacity:1;stroke-width:1.02786" />
    <path
       d="m 752,9965 c -36,-26 -72,-97 -71,-141 l 1,-39 9,45 c 12,61 56,122 99,137 31,10 32,12 10,12 -14,1 -35,-6 -48,-14 z"
       id="path57"
       style="fill:#000000;fill-opacity:1;stroke-width:1.02786" />
    <path
       d="m 7490,9969 c 40,-17 90,-83 100,-141 l 10,-43 v 41 c 0,29 -10,53 -30,86 -30,47 -60,67 -90,67 -20,0 -20,0 10,-10 z"
       id="path58"
       style="fill:#000000;fill-opacity:1;stroke-width:1.02786" />
    <path
       d="m 808,9934 c 35,-15 38,-30 9,-48 -12,-8 -21,-5 -38,9 l -22,20 12,-22 c 14,-28 14,-35 -3,-58 -14,-19 -14,-19 -36,0 -16,15 -20,16 -15,3 4,-9 14,-19 22,-22 18,-7 53,20 53,41 0,7 8,13 18,13 9,0 31,11 47,25 29,24 29,25 11,40 -11,8 -36,15 -55,14 l -36,-1 z"
       id="path59"
       style="fill:#000000;fill-opacity:1;stroke-width:1.02786" />
    <path
       d="m 7420,9936 c -20,-13 -20,-15 10,-40 10,-14 30,-26 40,-26 10,0 20,-6 20,-13 0,-21 40,-48 50,-41 10,3 20,13 30,22 0,13 0,12 -20,-3 -20,-19 -20,-19 -40,0 -10,23 -10,30 0,58 l 10,22 -20,-20 c -20,-14 -20,-17 -40,-9 -30,18 -20,33 10,48 l 40,14 -40,1 c -20,1 -40,-5 -50,-13 z"
       id="path60"
       style="fill:#000000;fill-opacity:1;stroke-width:1.02786" />
    <path
       d="m 470,9571 c 0,-11 4,-22 9,-25 4,-3 6,6 3,19 -5,30 -12,33 -12,6 z"
       id="path61"
       style="fill:#000000;fill-opacity:1;stroke-width:1.02786" />
    <path
       d="M 330,2340 V 440 h 1900 c 1893,0 1900,0 1900,20 0,20 -7,20 -1880,20 H 370 v 1880 c 0,1873 0,1880 -20,1880 -20,0 -20,-7 -20,-1900 z"
       id="path62"
       style="fill:#000000;fill-opacity:1;stroke-width:1.02786" />
    <path
       d="M 420,2387 V 530 l 1858,2 c 1021,2 1715,5 1542,8 -250,4 -311,7 -295,17 16,9 18,14 8,24 -7,7 -13,9 -13,5 0,-5 -7,-3 -15,4 -12,10 -20,9 -40,-4 -30,-20 -41,-21 -26,-2 19,23 -4,28 -24,6 -11,-12 -21,-16 -25,-10 -4,6 -22,1 -48,-12 -41,-20 -45,-20 -90,-5 -28,9 -38,16 -25,16 12,1 24,5 27,9 3,5 -8,7 -23,4 -16,-2 -46,5 -70,17 -45,24 -53,32 -19,23 37,-9 10,18 -39,39 -24,10 -102,53 -174,94 -151,89 -224,118 -342,139 -48,8 -95,20 -106,25 -29,16 -51,13 -51,-5 0,-17 -22,-16 -92,1 -22,6 -28,4 -28,-9 0,-13 -11,-16 -56,-16 -40,0 -54,-3 -51,-12 3,-9 22,-12 61,-10 31,2 56,1 56,-1 0,-11 -166,-28 -203,-21 -55,9 -97,51 -97,96 0,46 19,69 66,78 38,7 38,8 7,9 -46,2 -87,-36 -87,-81 0,-76 56,-117 161,-120 38,-1 60,-3 50,-5 -9,-3 -58,-24 -107,-49 -50,-24 -92,-44 -95,-44 -2,0 -7,14 -10,32 l -7,32 -22,-37 -22,-36 -33,20 c -41,25 -47,20 -26,-20 l 16,-31 -48,-21 c -170,-75 -295,-103 -435,-97 -93,3 -111,7 -170,36 -86,42 -161,122 -184,197 -10,30 -15,58 -11,61 4,4 31,-14 61,-40 60,-51 110,-76 153,-76 78,0 163,52 189,117 19,44 18,134 -2,183 -21,53 -12,175 20,270 46,136 150,252 254,285 23,7 23,6 -2,-18 -30,-30 -41,-67 -30,-104 4,-16 6,-32 4,-38 -24,-86 -16,-136 31,-190 28,-31 29,-35 11,-35 -11,0 -39,-7 -62,-15 -155,-55 -234,-244 -162,-386 38,-76 92,-112 177,-117 78,-5 114,8 155,55 25,28 30,42 30,84 0,27 -7,63 -15,79 -16,32 -80,80 -105,80 -8,0 0,-8 18,-17 78,-38 111,-138 66,-200 -27,-37 -80,-63 -124,-62 -27,1 -29,3 -10,6 87,14 129,48 137,110 9,69 -51,143 -115,143 -30,0 -92,-26 -92,-39 0,-5 14,-3 30,6 40,20 83,9 115,-29 36,-43 34,-89 -7,-123 -27,-23 -39,-26 -79,-23 -26,3 -60,15 -79,28 -67,48 -90,163 -48,250 12,25 22,49 22,54 1,6 20,24 43,42 51,39 135,59 209,50 45,-5 75,-13 189,-50 11,-4 -7,7 -40,24 -33,16 -67,30 -74,30 -8,0 6,13 32,29 185,118 135,397 -79,441 -236,49 -443,-173 -448,-482 -1,-86 -1,-86 -21,-68 -39,35 -83,50 -147,50 -81,0 -151,-38 -196,-105 -136,-206 19,-476 295,-516 113,-16 278,14 420,76 29,13 53,22 53,19 0,-7 -79,-42 -160,-71 -37,-13 -50,-20 -30,-17 19,4 78,22 130,40 131,47 142,46 120,-12 -14,-36 -7,-40 28,-15 l 30,21 16,-25 c 9,-13 16,-27 16,-30 0,-3 -349,-4 -775,-3 l -775,3 -2,716 c -1,394 2,721 6,727 4,7 4,12 -1,12 -4,0 -8,23 -8,50 0,28 2,50 5,50 3,0 15,-8 28,-18 l 23,-18 -22,-27 c -26,-34 -20,-43 22,-28 18,6 34,9 36,7 11,-10 2,-49 -30,-131 -19,-49 -38,-106 -41,-125 -4,-22 3,-10 18,30 29,80 64,160 69,160 2,0 -11,-39 -29,-87 -52,-138 -67,-218 -62,-341 3,-95 7,-115 35,-174 37,-79 100,-146 175,-185 46,-24 64,-28 138,-28 77,0 90,3 140,31 120,68 167,197 112,309 -8,17 -21,37 -28,46 -13,14 -5,17 81,22 213,14 375,107 442,254 74,161 9,335 -141,378 -104,30 -220,-13 -272,-101 l -27,-45 -21,53 c -12,29 -28,62 -35,73 l -13,20 7,-20 c 4,-11 16,-44 26,-74 29,-84 35,-176 15,-246 -14,-45 -29,-70 -68,-109 -28,-28 -45,-43 -38,-33 11,15 8,15 -31,-3 -58,-26 -138,-26 -189,0 -58,29 -85,74 -85,138 0,46 4,57 28,78 36,31 78,31 116,-2 38,-32 49,-80 27,-123 -22,-41 -11,-40 14,2 36,59 18,130 -43,167 -41,25 -83,25 -124,0 -37,-22 -51,-45 -63,-103 -6,-31 -8,-35 -9,-15 -3,66 47,136 107,151 54,13 162,-53 162,-100 0,-9 3,-13 6,-10 14,13 -21,71 -59,98 -75,55 -178,30 -219,-51 -21,-42 -23,-128 -5,-173 38,-89 117,-137 224,-137 80,0 132,21 191,75 46,41 92,125 92,168 v 29 l 35,-31 c 51,-45 103,-57 159,-39 30,10 50,12 61,5 25,-14 85,-1 111,24 54,51 -2,-56 -63,-122 -25,-27 -41,-49 -35,-49 17,0 89,88 114,138 27,56 36,167 18,213 -7,16 -15,28 -17,25 -3,-2 -21,7 -40,20 -38,26 -67,30 -107,14 -42,-16 -66,-47 -66,-85 v -35 l 25,22 c 14,12 25,32 25,44 0,22 25,44 51,44 8,0 6,-7 -5,-19 -14,-15 -15,-24 -6,-40 13,-25 48,-28 57,-5 3,8 0,21 -6,27 -10,9 -16,7 -28,-8 l -15,-20 4,20 c 8,46 73,23 104,-37 18,-36 18,-58 -1,-31 -18,26 -49,34 -71,18 -22,-16 -8,-38 19,-31 12,3 27,0 34,-6 16,-13 17,-64 1,-74 -7,-4 -8,-3 -4,4 15,24 -32,11 -48,-13 -10,-14 -26,-25 -39,-25 -15,0 -18,3 -9,8 15,10 5,45 -12,39 -6,-2 -12,-13 -14,-25 -5,-30 -64,-45 -117,-31 -69,19 -115,77 -115,145 0,51 35,119 73,146 l 32,21 -32,-34 c -59,-63 -71,-139 -28,-179 14,-13 26,-22 28,-19 33,45 37,60 27,101 -9,39 -1,111 11,98 2,-3 17,5 33,18 55,42 158,23 211,-40 14,-16 25,-26 25,-21 0,15 -63,71 -93,82 -46,18 -111,13 -140,-9 -23,-18 -25,-19 -31,-3 -4,10 -4,14 0,11 4,-4 16,-1 28,7 27,19 107,19 154,0 85,-36 127,-106 127,-215 -1,-62 -5,-84 -28,-128 -27,-52 -92,-123 -130,-144 -14,-7 -17,-7 -13,1 11,17 0,13 -51,-19 -102,-65 -292,-99 -372,-66 -92,36 -203,12 -254,-56 -70,-95 -62,-178 29,-284 26,-30 44,-57 40,-61 -3,-4 -31,1 -61,11 -75,23 -155,98 -197,184 -30,60 -33,77 -36,172 -4,119 15,221 68,358 42,109 51,119 85,104 37,-17 40,-11 16,29 l -21,34 43,22 c 32,17 37,22 20,23 -53,1 -54,6 -7,106 24,53 44,102 44,109 0,8 4,16 9,19 5,4 6,-5 2,-21 -10,-37 4,-129 24,-159 16,-25 70,-54 99,-54 8,0 28,12 45,26 25,21 31,33 29,62 l -1,37 -4,-36 c -5,-44 -30,-70 -70,-71 -37,-1 -69,16 -90,49 -20,30 -22,149 -4,213 9,33 10,32 8,-20 -2,-43 1,-55 13,-55 12,0 14,11 12,53 -3,44 -1,52 13,52 14,0 16,6 11,28 -19,82 -19,92 -2,92 18,0 21,22 6,51 -6,10 -18,60 -26,111 -20,118 -43,174 -136,334 -41,71 -84,150 -95,175 -22,49 -51,80 -38,40 11,-35 -3,-24 -27,22 -12,23 -21,51 -20,62 1,18 1,18 -6,2 -6,-14 -10,-8 -20,26 -14,45 -12,52 26,131 3,5 0,6 -7,2 -20,-12 -12,5 11,23 12,11 18,23 14,30 -6,9 -11,9 -22,0 -19,-16 -18,0 2,22 11,12 14,25 9,36 -8,18 -11,27 -14,40 0,3 -9,-1 -18,-10 -17,-15 -18,-1 -15,285 2,197 -1,305 -8,312 -7,7 -10,-574 -10,-1847 z m 35,1172 c -9,-17 -19,-28 -22,-25 -6,6 23,56 32,56 3,0 -2,-14 -10,-31 z m 15,-287 c 14,-37 43,-95 63,-129 38,-66 39,-70 4,-51 -12,6 -37,12 -57,13 -19,2 -30,1 -23,-2 26,-10 53,-72 59,-134 8,-89 21,-127 46,-135 45,-14 77,81 47,138 -8,15 -8,19 0,14 6,-4 11,0 11,11 0,14 5,12 26,-12 36,-41 81,-138 95,-204 16,-80 7,-267 -15,-310 -10,-18 -13,-30 -8,-27 6,3 5,-11 -2,-37 -10,-39 -11,-40 -14,-14 -3,27 -4,27 -17,11 -13,-18 -14,-18 -35,1 l -21,19 6,-27 c 7,-25 5,-27 -21,-27 h -29 l 24,-19 c 16,-12 20,-21 12,-25 -17,-11 -13,-29 6,-22 18,7 33,-9 33,-35 0,-26 -32,-96 -38,-81 -3,10 -13,5 -34,-15 l -30,-28 -30,35 -29,35 3,-45 c 3,-44 2,-45 -30,-48 l -32,-3 v 488 c 0,268 -1,545 -3,615 -1,69 0,124 2,122 3,-2 16,-34 31,-72 z m 76,-199 c 27,-17 44,-36 44,-47 0,-15 -10,-10 -47,24 -27,24 -50,45 -52,47 -2,2 -1,3 4,3 4,0 27,-12 51,-27 z M 724,1675 c 13,-9 43,-20 67,-25 l 44,-9 -43,3 c -49,5 -115,44 -133,78 -10,20 -7,19 15,-5 15,-15 37,-34 50,-42 z m 231,-5 c -3,-5 -12,-10 -18,-10 -7,0 -6,4 3,10 19,12 23,12 15,0 z m 981,-38 c 75,-38 114,-104 114,-189 0,-51 -10,-75 -32,-79 -35,-7 -71,-22 -55,-23 10,-1 27,4 37,9 31,17 34,-8 5,-46 -74,-97 -216,-98 -275,-2 -30,49 -26,163 6,157 21,-4 34,2 34,15 0,19 -25,27 -39,13 -8,-8 -11,-6 -11,7 0,10 15,32 33,49 27,26 29,32 14,35 -26,5 -10,22 22,22 35,0 66,-31 49,-48 -19,-19 6,-39 27,-22 22,18 19,37 -10,66 -25,25 -25,25 -3,19 75,-22 129,-117 64,-114 -17,1 -18,2 -3,6 22,6 18,36 -5,41 -21,4 -34,-34 -18,-53 16,-19 35,-19 54,1 15,14 16,14 16,-3 0,-24 -19,-43 -43,-43 -11,0 -30,-11 -42,-24 l -22,-24 20,-6 c 12,-3 35,3 52,12 58,35 72,105 31,165 -13,19 -22,37 -20,40 10,10 -62,27 -115,27 -75,0 -161,-41 -231,-111 -58,-57 -51,-41 9,24 94,100 232,133 337,79 z m -1053,11 c -7,-2 -19,-2 -25,0 -7,3 -2,5 12,5 14,0 19,-2 13,-5 z m 71,-106 c 60,-33 88,-87 83,-164 -3,-72 -37,-130 -97,-166 -21,-13 -30,-15 -24,-7 21,26 15,92 -11,124 -17,22 -33,29 -66,32 -38,3 -49,-1 -77,-27 -22,-21 -32,-38 -29,-50 9,-35 -9,-28 -36,14 -45,69 -31,174 31,230 55,50 150,56 226,14 z M 813,1282 c -10,-10 -20,-17 -22,-16 -6,5 20,34 30,34 5,0 1,-8 -8,-18 z m 52,7 c 11,-16 1,-19 -13,-3 -7,8 -8,14 -3,14 5,0 13,-5 16,-11 z m -50,-68 c -6,-5 -25,10 -25,20 0,5 6,4 14,-3 8,-7 12,-15 11,-17 z m 50,10 c -3,-6 -11,-11 -16,-11 -5,0 -4,6 3,14 14,16 24,13 13,-3 z m 495,-103 c 60,-30 94,-92 95,-168 0,-66 -17,-103 -68,-144 -31,-25 -49,-31 -100,-34 -52,-3 -67,0 -96,20 -40,27 -52,49 -23,41 13,-3 29,6 50,28 24,25 30,42 30,74 0,35 -5,46 -32,67 -42,34 -103,36 -129,5 -18,-22 -18,-21 -3,9 20,41 72,93 111,110 47,20 115,17 165,-8 z m 240,-22 c 0,-2 -8,-10 -17,-17 -16,-13 -17,-12 -4,4 13,16 21,21 21,13 z m -63,-193 c -2,-16 -4,-3 -4,27 0,30 2,43 4,28 2,-16 2,-40 0,-55 z m -409,53 c -7,-8 -15,-12 -17,-11 -5,6 10,25 20,25 5,0 4,-6 -3,-14 z m 57,3 c 11,-16 1,-19 -13,-3 -7,8 -8,14 -3,14 5,0 13,-5 16,-11 z m -50,-68 c -6,-5 -25,10 -25,20 0,5 6,4 14,-3 8,-7 12,-15 11,-17 z m 50,10 c -3,-6 -11,-11 -16,-11 -5,0 -4,6 3,14 14,16 24,13 13,-3 z m 1503,-66 c 71,-17 143,-51 187,-89 24,-21 26,-26 12,-26 -11,0 -15,-5 -11,-11 5,-8 1,-8 -14,0 -57,30 -152,-2 -138,-47 8,-24 45,-37 130,-47 72,-8 99,-18 125,-44 19,-19 19,-19 17,13 -2,17 -8,41 -14,53 -19,34 -15,35 38,2 28,-17 88,-47 133,-66 45,-19 84,-36 86,-39 2,-2 -273,-4 -612,-4 h -617 v 35 35 h 47 47 l -34,30 -35,30 33,30 c 25,23 28,30 15,31 -10,0 0,9 23,21 28,14 50,19 68,14 23,-6 25,-10 20,-34 -7,-26 -7,-27 13,-9 19,17 21,17 36,-5 l 16,-23 v 28 c 1,25 4,27 29,21 l 27,-7 -19,22 c -19,21 -19,22 0,36 18,14 17,14 -11,16 -29,1 -29,2 10,14 22,6 41,8 43,4 2,-5 13,-4 25,3 57,30 223,37 325,13 z M 1624,772 c 17,-12 25,-22 18,-22 -16,0 -92,76 -92,92 0,7 10,-1 22,-18 12,-17 35,-40 52,-52 z M 2966,655 c 14,-25 25,-47 23,-49 -2,-2 -23,18 -47,45 -37,42 -41,49 -23,49 13,0 29,-15 47,-45 z m 524,-80 c 0,-6 -56,-35 -67,-35 -9,0 48,38 60,39 4,1 7,-1 7,-4 z"
       id="path63"
       style="fill:#000000;fill-opacity:1;stroke-width:1.02786" />
    <path
       d="m 681,2759 c -7,-16 -31,-42 -52,-56 -39,-26 -52,-53 -25,-53 8,0 18,5 21,10 3,6 11,10 17,10 21,0 -15,-30 -63,-51 -33,-15 -49,-29 -49,-41 0,-31 49,-23 88,15 28,26 32,27 23,9 -7,-13 -39,-44 -72,-69 -65,-51 -75,-82 -29,-93 24,-6 24,-7 3,-14 -11,-4 -24,-14 -27,-22 -7,-19 21,-31 43,-17 19,12 76,103 90,147 l 11,31 -32,-37 c -31,-34 -66,-58 -85,-58 -4,0 18,26 49,58 69,70 99,128 105,204 3,32 4,58 2,58 -2,0 -10,-14 -18,-31 z"
       id="path64"
       style="fill:#000000;fill-opacity:1;stroke-width:1.02786" />
    <path
       d="m 707,2694 c -9,-10 2,-24 19,-24 8,0 14,7 14,15 0,15 -21,21 -33,9 z"
       id="path65"
       style="fill:#000000;fill-opacity:1;stroke-width:1.02786" />
    <path
       d="m 1953,1599 c 10,-6 31,-29 47,-51 17,-23 30,-36 30,-30 0,16 -70,92 -84,92 -6,0 -3,-5 7,-11 z"
       id="path66"
       style="fill:#000000;fill-opacity:1;stroke-width:1.02786" />
    <path
       d="m 2031,1484 c 0,-11 3,-14 6,-6 3,7 2,16 -1,19 -3,4 -6,-2 -5,-13 z"
       id="path67"
       style="fill:#000000;fill-opacity:1;stroke-width:1.02786" />
    <path
       d="m 2031,1414 c 0,-11 3,-14 6,-6 3,7 2,16 -1,19 -3,4 -6,-2 -5,-13 z"
       id="path68"
       style="fill:#000000;fill-opacity:1;stroke-width:1.02786" />
    <path
       d="m 1980,1333 c -26,-12 -46,-13 -84,-5 -40,8 -54,7 -73,-5 -28,-18 -29,-34 -5,-56 23,-21 71,-22 115,-3 31,13 95,72 86,79 -2,2 -20,-2 -39,-10 z"
       id="path69"
       style="fill:#000000;fill-opacity:1;stroke-width:1.02786" />
    <path
       d="m 2565,840 c -8,-13 4,-32 16,-25 12,8 12,35 0,35 -6,0 -13,-4 -16,-10 z"
       id="path70"
       style="fill:#000000;fill-opacity:1;stroke-width:1.02786" />
    <path
       d="m 2563,796 c -59,-19 -106,-51 -151,-102 -22,-24 -42,-44 -46,-44 -16,0 -2,25 40,71 l 47,49 -49,-21 c -102,-45 -153,-94 -126,-121 7,-7 17,-3 30,10 20,20 20,20 25,1 10,-36 44,-21 91,39 25,31 56,63 68,71 18,11 16,6 -10,-23 -36,-41 -43,-86 -14,-86 12,0 25,14 37,40 10,22 27,47 39,57 11,10 15,11 9,3 -18,-19 -16,-40 2,-40 9,0 25,16 37,36 13,22 37,44 62,55 l 41,19 -45,-1 c -25,0 -64,-6 -87,-13 z"
       id="path71"
       style="fill:#000000;fill-opacity:1;stroke-width:1.02786" />
    <path
       d="m 7830,4227 c 0,-7 0,-146 0,-309 10,-282 0,-296 -10,-281 -10,9 -20,13 -20,10 0,-13 -10,-22 -10,-40 -10,-11 -10,-24 0,-36 20,-22 30,-38 10,-22 -10,9 -20,9 -30,0 0,-7 10,-19 20,-30 20,-18 30,-35 10,-23 -10,4 -10,3 -10,-2 40,-79 40,-86 30,-131 -10,-34 -20,-40 -20,-26 -10,16 -10,16 -10,-2 0,-11 -10,-39 -20,-62 -20,-46 -40,-57 -20,-22 10,40 -20,9 -40,-40 -10,-25 -60,-104 -100,-175 -90,-160 -110,-216 -130,-334 -10,-51 -20,-101 -30,-111 -10,-29 -10,-51 10,-51 10,0 10,-10 -10,-92 0,-22 0,-28 20,-28 10,0 10,-8 10,-52 0,-42 0,-53 10,-53 10,0 20,12 10,55 0,52 0,53 10,20 20,-64 20,-183 0,-213 -20,-33 -60,-50 -90,-49 -43,1 -68,27 -73,71 l -4,36 -1,-37 c -2,-29 4,-41 29,-62 17,-14 39,-26 49,-26 30,0 80,29 100,54 20,30 30,122 20,159 0,16 0,25 0,21 10,-3 10,-11 10,-19 0,-7 20,-56 40,-109 50,-100 50,-105 0,-106 -20,-1 -10,-6 20,-23 l 40,-22 -20,-34 c -20,-40 -20,-46 20,-29 30,15 40,5 80,-104 50,-137 70,-239 70,-358 0,-95 -10,-112 -40,-172 -40,-86 -120,-161 -190,-184 -30,-10 -60,-15 -70,-11 0,4 20,31 40,61 100,106 100,189 30,284 -50,68 -160,92 -251,56 -80,-33 -270,1 -372,66 -51,32 -62,36 -51,19 4,-8 1,-8 -13,-1 -38,21 -103,92 -130,144 -23,44 -27,66 -28,128 0,109 42,179 127,215 47,19 127,19 154,0 12,-8 24,-11 28,-7 4,3 4,-1 0,-11 -6,-16 -8,-15 -31,3 -29,22 -94,27 -140,9 -30,-11 -93,-67 -93,-82 0,-5 11,5 25,21 53,63 156,82 211,40 16,-13 31,-21 33,-18 12,13 20,-59 11,-98 -10,-41 -6,-56 27,-101 2,-3 14,6 28,19 43,40 31,116 -28,179 l -32,34 32,-21 c 38,-27 73,-95 73,-146 0,-69 -46,-127 -115,-145 -54,-14 -112,1 -117,31 -2,12 -8,23 -14,25 -17,6 -27,-29 -12,-39 9,-5 6,-8 -9,-8 -13,0 -29,11 -39,25 -16,24 -63,37 -48,13 4,-7 3,-8 -4,-4 -16,10 -15,61 1,74 7,6 22,9 34,6 27,-7 41,15 19,31 -22,16 -53,8 -71,-18 -19,-27 -19,-5 -1,31 31,60 96,83 104,37 l 4,-20 -15,20 c -12,15 -18,17 -28,8 -6,-6 -9,-19 -6,-27 9,-23 44,-20 57,5 9,16 8,25 -6,40 -11,12 -13,19 -5,19 26,0 51,-22 51,-44 0,-12 11,-32 25,-44 l 25,-22 v 35 c 0,38 -24,69 -66,85 -40,16 -69,12 -107,-14 -19,-13 -37,-22 -40,-20 -2,3 -10,-9 -17,-25 -18,-46 -9,-157 18,-213 25,-50 97,-138 114,-138 6,0 -10,22 -35,49 -61,66 -117,173 -63,122 26,-25 86,-38 111,-24 11,7 31,5 61,-5 56,-18 108,-6 159,39 l 35,31 v -29 c 0,-43 46,-127 92,-168 59,-54 111,-75 188,-75 110,0 190,48 230,137 20,45 10,131 -10,173 -40,81 -140,106 -220,51 -30,-27 -70,-85 -56,-98 3,-3 6,1 6,10 0,47 110,113 160,100 60,-15 110,-85 110,-151 0,-20 0,-16 -10,15 -10,58 -30,81 -60,103 -40,25 -90,25 -130,0 -60,-37 -76,-108 -40,-167 30,-42 40,-43 10,-2 -20,43 -10,91 30,123 40,33 80,33 120,2 20,-21 30,-32 30,-78 0,-64 -30,-109 -90,-138 -50,-26 -131,-26 -189,0 -39,18 -42,18 -31,3 7,-10 -10,5 -38,33 -39,39 -54,64 -68,109 -20,70 -14,162 15,246 10,30 22,63 26,74 l 7,20 -13,-20 c -7,-11 -23,-44 -35,-73 l -21,-53 -27,45 c -52,88 -168,131 -272,101 -150,-43 -215,-217 -141,-378 67,-147 229,-240 442,-254 86,-5 94,-8 81,-22 -66,-75 -67,-199 -3,-283 18,-22 57,-55 87,-72 50,-28 60,-31 140,-31 70,0 90,4 140,28 70,39 140,106 170,185 30,59 40,79 40,174 0,123 -10,203 -60,341 -20,48 -30,87 -30,87 0,0 40,-80 70,-160 10,-40 20,-52 10,-30 0,19 -20,76 -40,125 -30,82 -40,121 -30,131 10,2 20,-1 40,-7 40,-15 50,-6 20,28 l -20,27 20,18 c 20,10 30,18 30,18 0,0 10,-22 10,-50 0,-27 -10,-50 -10,-50 -10,0 -10,-5 0,-12 0,-6 0,-333 0,-727 V 545 l -775,-3 c -426,-1 -775,0 -775,3 0,3 7,17 16,30 l 16,25 30,-21 c 35,-25 42,-21 28,15 -22,58 -11,59 120,12 52,-18 111,-36 130,-40 20,-3 7,4 -30,17 -81,29 -160,64 -160,71 0,3 24,-6 53,-19 142,-62 307,-92 420,-76 276,40 431,310 295,516 -76,115 -246,142 -343,55 -20,-18 -20,-18 -21,68 -5,309 -212,531 -448,482 -214,-44 -264,-323 -79,-441 26,-16 40,-29 32,-29 -7,0 -41,-14 -74,-30 -33,-17 -51,-28 -40,-24 114,37 144,45 189,50 74,9 158,-11 209,-50 23,-18 42,-36 43,-42 0,-5 10,-29 22,-54 42,-86.9 19,-202 -48,-250 -19,-13 -53,-25 -79,-28 -40,-3 -52,0 -79,23 -41,34 -43,80 -7,123 32,38.1 75,49.1 115,29 16,-9 30,-11 30,-6 0,13.1 -62,39.1 -92,39.1 -64,0 -124,-74.1 -115,-143.1 8,-62 50,-96 137,-110 19,-3 17,-5 -10,-6 -44,-1 -97,25 -124,62 -45,62 -12,162 66,200.1 18,8.9 26,16.9 18,16.9 -25,0 -89,-47.9 -105,-80 -8,-16 -15,-52 -15,-79 0,-42 5,-56 30,-84 41,-47 77,-60 155,-55 85,5 139,41 178,117 71,142.1 -8,331 -163,386 -23,8 -51,15 -62,15 -18,0 -17,4 11,35 47,54 55,104 31,190 -2,6 0,22 4,38 11,37 0,74 -30,104 -25,24 -25,25 -2,18 104,-33 208,-149 254,-285 32,-95 41,-217 20,-270 -20,-49 -21,-139 -2,-183 26,-65 111,-117 189,-117 43,0 93,25 153,76 30,26 57,44 61,40 4,-3 -1,-31 -11,-61 -23,-75 -98,-155 -184,-197 -59,-29 -77,-33 -170,-36 -140,-6 -265,22 -435,97 l -48,21 16,31 c 21,40 15,45 -26,20 l -33,-20 -22,36 -22,37 -7,-32 c -3,-18 -8,-32 -10,-32 -3,0 -45,20 -95,44 -49,25 -98,46 -107,49 -10,2 12,4 50,5 105,3 161,44 161,120 0,45 -41,83 -87,81 -31,-1 -31,-2 7,-9 47,-9 66,-31.9 66,-78 0,-45 -42,-87 -97,-96 -37,-7 -203,10 -203,21 0,2 25,3 56,1 39,-2 58,1 61,10 3,9 -11,12 -51,12 -45,0 -56,3 -56,16 0,13 -6,15 -27,9 -71,-17 -93,-18 -93,-1 0,18 -22,21 -51,5 -11,-5 -58,-17 -106,-25 -118,-21 -191,-50 -342,-139 -72,-41 -150,-84 -174,-94 -49,-21 -76,-48 -39,-39 34,9 26,1 -19,-23 -24,-12 -54,-19 -70,-17 -15,3 -26,1 -23,-4 3,-4 15,-8 27,-9 13,0 3,-7 -25,-16 -45,-15 -49,-15 -90,5 -26,13 -44,18 -48,12 -4,-6 -14,-2 -25,10 -20,22 -43,17 -24,-6 15,-19 4,-18 -26,2 -20,13 -28,14 -40,4 -8,-7 -15,-9 -15,-4 0,4 -6,2 -12,-5 -11,-10 -9,-15 7,-24 16,-10 -45,-13 -295,-17 -173,-3 521,-6 1543,-8 l 1857,-2 v 1855 c 0,1020 0,1855 0,1855 -10,0 -10,-6 -20,-13 z m 10,-688 c 0,-18 -10,-8 -20,24 l -20,32 20,-24 c 10,-13 20,-27 20,-32 z m -10,-316 c 0,-71 0,-348 0,-616 v -488 l -30,3 c -30,3 -30,4 -30,48 v 45 l -30,-35 -30,-35 -30,28 c -20,20 -30,25 -30,15 -10,-15 -40,55 -40,81 0,26 20,42 30,35 20,-7 30,11 10,22 -10,4 0,13 10,25 l 30,19 h -30 c -30,0 -30,2 -20,27 v 27 l -20,-19 c -20,-19 -20,-19 -30,-1 -20,16 -20,16 -20,-11 0,-26 -10,-25 -20,14 0,26 0,40 0,37 10,-3 0,9 -10,27 -20,43 -30,230 -10,310 10,66 60,163 90,204 30,24 30,26 30,12 0,-11 10,-15 10,-11 10,5 10,1 0,-14 -30,-57 0,-152 50,-138 20,8 40,46 40,135 10,62 40,124 60,134 10,3 0,4 -20,2 -20,-1 -40,-7 -60,-13 -30,-19 -30,-15 10,49 30,53 60,122 80,192 10,9 10,17 10,17 0,0 0,-57 0,-127 z m -50,-126 c 0,-2 -30,-23 -50,-47 -40,-34 -50,-39 -50,-24 0,18 70,73 90,74 10,0 10,-1 10,-3 z M 7610,1720 c -20,-33 -80,-71 -130,-76 l -40,-3 40,9 c 50,10 100,40 120,72 20,24 20,23 10,-2 z m -275,-58 c -3,-3 -11,0 -18,7 -9,10 -8,11 6,5 10,-3 15,-9 12,-12 z m -773,-30 c 50,-22 117,-78 150,-126 13,-19 1,-10 -32,23 -70,70 -155,111 -231,111 -53,0 -125,-17 -115,-27 2,-3 -7,-21 -20,-40 -41,-60 -27,-130 31,-165 17,-9 40,-15 52,-12 l 20,6 -22,24 c -12,13 -31,24 -42,24 -24,0 -43,19 -43,43 0,17 1,17 16,3 19,-20 38,-20 54,-1 16,19 3,57 -18,53 -23,-5 -27,-35 -5,-41 15,-4 14,-5 -3,-6 -65,-3 -11,92 64,114 22,6 22,6 -3,-19 -29,-29 -32,-48 -10,-66 21,-17 46,3 27,22 -17,17 14,48 49,48 32,0 48,-17 22,-22 -15,-3 -13,-9 15,-35 17,-17 32,-39 32,-49 0,-13 -3,-15 -11,-7 -14,14 -39,6 -39,-13 0,-13 13,-19 34,-15 32,6 36,-108 6,-157 -59,-96 -201,-95 -275,2 -29,38 -26,63 5,46 10,-5 27,-10 37,-9 16,1 -20,16 -55,23 -22,4 -32,28 -32,79 0,101 55,174 160,208 39,13 133,3 182,-19 z m 848,11 c 0,-2 -20,-2 -22,0 -7,3 -2,5 12,5 10,0 20,-2 10,-5 z m 70,-87 c 50,-18 80,-41 100,-88 30,-55 30,-125 -10,-175 -20,-42 -40,-49 -30,-14 0,12 -10,29 -30,50 -30,26 -40,30 -80,27 -30,-3 -48,-10 -65,-32 -26,-32 -32,-98 -11,-124 6,-8 -3,-6 -24,7 -89,54 -126,173 -81,261 23,45 50,67 109,88 52,17 82,17 122,0 z m -60,-270 c -10,-8 -20,-12 -20,-11 0,6 10,25 20,25 10,0 10,-6 0,-14 z m 50,-1 c 20,-22 10,-25 -10,-3 -10,10 -20,18 -10,18 0,0 10,-7 20,-15 z m -40,-64 c -10,-5 -30,10 -30,20 0,5 10,4 10,-3 10,-7 20,-15 20,-17 z m 50,10 c -10,-6 -20,-11 -20,-11 -10,0 0,6 0,14 20,16 30,13 20,-3 z m -407,-95 c 40,-16 92,-67 113,-110 15,-29.9 15,-30.9 -3,-9 -26,31 -87,29 -129,-5 -27,-20.9 -32,-31.9 -32,-67 0,-32 6,-49 30,-74 21,-22 37,-31 50,-28 29,8 17,-14 -23,-41 -29,-20 -44,-23 -96,-20 -51,3 -69,9 -100,34 -51,41 -68,78 -68,144.1 1,75.9 35,137.9 95,167.9 50,25 115,29 163,8 z m -382,-43 c 13,-16 12,-17 -3,-4 -17,13 -22,21 -14,21 2,0 10,-8 17,-17 z m 46,-180 c -2,-16 -4,-3 -4,27 0,30.1 2,43.1 4,28.1 2,-16.1 2,-40.1 0,-55.1 z m 361,53.1 c -7,-8.1 -15,-12.1 -17,-11.1 -5,6.1 10,25.1 20,25.1 5,0 4,-6 -3,-14 z m 57,3 c 11,-16.1 1,-19.1 -13,-3 -7,8 -8,14 -3,14 5,0 13,-5 16,-11 z M 7105,901 c -6,-5 -25,10 -25,20 0,5 6,4 14,-3 8,-7 12,-15 11,-17 z m 50,10 c -3,-6 -11,-11 -16,-11 -5,0 -4,6 3,14 14,16 24,13 13,-3 z M 5897,837 c 17,-9 33,-13 35,-8 2,4 21,2 43,-4 39,-12 39,-13 10,-14 -28,-2 -29,-2 -11,-16 19,-14 19,-15 0,-36 l -19,-22 28,7 c 24,6 27,4 28,-21 v -28 l 16,23 c 15,22 17,22 36,5 20,-18 20,-17 13,9 -5,24 -3,28 20,34 18,5 40,0 68,-14 23,-12 33,-21 23,-21 -13,-1 -10,-8 15,-31 l 33,-30 -35,-30 -34,-30 h 47 47 v -35 -35 h -617 c -339,0 -614,2 -612,4 2,3 41,20 86,39 45,19 105,49 133,66 53,33 57,32 38,-2 -6,-12 -12,-36 -14,-53 -2,-32 -2,-32 17,-13 26,26 53,36 125,44 85,10 122,23 130,47 14,45 -81,77 -138,47 -15,-8 -19,-8 -14,0 4,6 0,11 -11,11 -14,0 -12,5 12,26 42,36 115,72 183,89 79,20 275,15 319,-8 z m 807,-21 c -17,-27 -72,-71 -79,-64 -2,2 9,12 24,22 15,11 36,32 47,47 10,15 20,26 22,24 2,-2 -4,-15 -14,-29 z M 5328,651 c -24,-27 -45,-47 -47,-45 -2,2 9,24 23,49 18,30 34,45 47,45 18,0 14,-7 -23,-49 z m -506,-91 c 18,-11 29,-20 25,-20 -11,0 -67,29 -67,35 0,9 9,5 42,-15 z"
       id="path72"
       style="fill:#000000;fill-opacity:1;stroke-width:1.02786" />
    <path
       d="m 7570,2734 c 10,-78 40,-134 110,-206 30,-32 50,-58 50,-58 -20,0 -60,24 -90,58 l -30,37 10,-31 c 20,-44 70,-135 90,-147 20,-14 50,-2 40,17 0,8 -10,18 -20,22 -20,7 -20,8 0,14 50,11 40,42 -30,93 -30,25 -60,56 -70,69 -10,18 -10,17 20,-9 40,-38 90,-46 90,-15 0,12 -20,26 -50,41 -50,21 -80,51 -60,51 0,0 10,-4 20,-10 0,-5 10,-10 20,-10 20,0 10,27 -30,53 -20,14 -40,40 -50,58 l -20,34 z"
       id="path73"
       style="fill:#000000;fill-opacity:1;stroke-width:1.02786" />
    <path
       d="m 7530,2685 c 0,-10 10,-15 20,-13 20,4 20,22 0,26 -10,2 -20,-3 -20,-13 z"
       id="path74"
       style="fill:#000000;fill-opacity:1;stroke-width:1.02786" />
    <path
       d="m 6276,1570 c -20,-22 -36,-45 -36,-52 0,-6 13,7 30,30 16,22 37,45 47,51 10,6 13,11 7,11 -7,0 -28,-18 -48,-40 z"
       id="path75"
       style="fill:#000000;fill-opacity:1;stroke-width:1.02786" />
    <path
       d="m 6231,1484 c 0,-11 3,-14 6,-6 3,7 2,16 -1,19 -3,4 -6,-2 -5,-13 z"
       id="path76"
       style="fill:#000000;fill-opacity:1;stroke-width:1.02786" />
    <path
       d="m 6231,1414 c 0,-11 3,-14 6,-6 3,7 2,16 -1,19 -3,4 -6,-2 -5,-13 z"
       id="path77"
       style="fill:#000000;fill-opacity:1;stroke-width:1.02786" />
    <path
       d="m 6250,1341 c 0,-13 65,-70 93,-80 43,-17 92,-13 110,7 23,25 21,37 -6,55 -19,12 -33,13 -73,5 -40,-8 -58,-7 -87,6 -20,8 -37,12 -37,7 z"
       id="path78"
       style="fill:#000000;fill-opacity:1;stroke-width:1.02786" />
    <path
       d="m 5682,836 c 1,-10 8,-17 13,-17 15,1 12,24 -3,29 -9,3 -13,-2 -10,-12 z"
       id="path79"
       style="fill:#000000;fill-opacity:1;stroke-width:1.02786" />
    <path
       d="m 5616,792 c 24,-12 49,-34 62,-56 12,-20 28,-36 37,-36 18,0 20,21 3,40 -7,8 -3,7 8,-3 12,-10 29,-35 39,-57 12,-26 25,-40 37,-40 29,0 22,45 -14,86 -26,29 -28,34 -10,23 12,-8 43,-40 68,-71 47,-60 81,-75 91,-39 5,19 5,19 25,-1 13,-13 23,-17 30,-10 27,27 -24,76 -126,121 l -49,21 47,-49 c 42,-45 56,-71 40,-71 -3,0 -26,22 -50,49 -57,64 -133,101 -216,108 l -63,4 z"
       id="path80"
       style="fill:#000000;fill-opacity:1;stroke-width:1.02786" />
    <path
       d="M 7900,2360 V 480 H 6020 c -1873,0 -1880,0 -1880,-20 0,-20 7,-20 1900,-20 h 1900 v 1900 c 0,1893 0,1900 -20,1900 -20,0 -20,-7 -20,-1880 z"
       id="path81"
       style="fill:#000000;fill-opacity:1;stroke-width:1.02786" />
    <path
       d="m 681,3087 c -2,-71 70,-167 125,-167 14,0 22,4 19,10 -3,6 -16,10 -29,10 -39,0 -96,77 -107,144 l -6,41 z"
       id="path82"
       style="fill:#000000;fill-opacity:1;stroke-width:1.02786" />
    <path
       d="m 7580,3090 c 0,-60 -70,-150 -110,-150 -10,0 -20,-4 -20,-10 -10,-6 0,-10 10,-10 60,0 130,100 130,168 l -10,37 z"
       id="path83"
       style="fill:#000000;fill-opacity:1;stroke-width:1.02786" />
    <path
       d="m 719,3073 c -11,-15 -11,-16 1,-5 36,31 73,-5 50,-48 -11,-21 -11,-21 15,-4 24,16 28,16 42,1 20,-19 5,-43 -30,-50 -12,-2 -4,-5 18,-5 22,-1 47,3 55,8 12,8 10,14 -15,40 -16,16 -36,30 -45,30 -9,0 -22,11 -28,25 -13,29 -44,33 -63,8 z"
       id="path84"
       style="fill:#000000;fill-opacity:1;stroke-width:1.02786" />
    <path
       d="m 7490,3065 c -10,-14 -20,-25 -30,-25 -10,0 -30,-14 -40,-30 -30,-26 -32,-32 -20,-40 10,-5 30,-9 60,-8 20,0 30,3 10,5 -30,7 -50,31 -30,50 20,15 20,15 50,-1 20,-17 20,-17 10,4 -20,43 10,79 50,48 10,-11 10,-10 0,5 -20,25 -50,21 -60,-8 z"
       id="path85"
       style="fill:#000000;fill-opacity:1;stroke-width:1.02786" />
    <path
       d="m 810,2840 c 0,-5 5,-10 10,-10 6,0 10,5 10,10 0,6 -4,10 -10,10 -5,0 -10,-4 -10,-10 z"
       id="path86"
       style="fill:#000000;fill-opacity:1;stroke-width:1.02786" />
    <path
       d="m 7440,2840 c 0,-5 10,-10 10,-10 10,0 10,5 10,10 0,6 0,10 -10,10 0,0 -10,-4 -10,-10 z"
       id="path87"
       style="fill:#000000;fill-opacity:1;stroke-width:1.02786" />
    <path
       d="m 818,2791 c -36,-36 -15,-90 39,-103 29,-8 59,15 66,49 11,57 -64,96 -105,54 z"
       id="path88"
       style="fill:#000000;fill-opacity:1;stroke-width:1.02786" />
    <path
       d="m 7363,2788 c -39,-42 -2,-113 47,-100 60,13 80,71 40,105 -30,23 -62,21 -87,-5 z"
       id="path89"
       style="fill:#000000;fill-opacity:1;stroke-width:1.02786" />
    <path
       d="m 890,2266 c 0,-2 8,-10 18,-17 15,-13 16,-12 3,4 -13,16 -21,21 -21,13 z"
       id="path90"
       style="fill:#000000;fill-opacity:1;stroke-width:1.02786" />
    <path
       d="m 7359,2253 c -13,-16 -12,-17 4,-4 16,13 21,21 13,21 -2,0 -10,-8 -17,-17 z"
       id="path91"
       style="fill:#000000;fill-opacity:1;stroke-width:1.02786" />
    <path
       d="m 960,2106 c 43,-15 69,-62 70,-125 0,-54 11,-49 12,6 0,44 -33,117 -57,127 -9,3 -26,6 -38,5 -16,0 -13,-4 13,-13 z"
       id="path92"
       style="fill:#000000;fill-opacity:1;stroke-width:1.02786" />
    <path
       d="m 7282,2113 c -22,-9 -54,-85 -54,-126 1,-55 12,-60 12,-6 1,63 27,110 70,125 30,11 31,12 10,12 -14,0 -31,-2 -38,-5 z"
       id="path93"
       style="fill:#000000;fill-opacity:1;stroke-width:1.02786" />
    <path
       d="m 900,2080 c 0,-19 32,-60 46,-60 8,0 14,-10 14,-24 0,-25 27,-43 43,-27 6,6 2,9 -9,8 -15,-2 -19,5 -19,29 0,24 -4,30 -20,30 -14,-1 -20,5 -20,19 0,14 6,20 22,19 12,0 20,3 17,8 -8,12 -74,10 -74,-2 z"
       id="path94"
       style="fill:#000000;fill-opacity:1;stroke-width:1.02786" />
    <path
       d="m 1231,2074 c 0,-11 3,-14 6,-6 3,7 2,16 -1,19 -3,4 -6,-2 -5,-13 z"
       id="path95"
       style="fill:#000000;fill-opacity:1;stroke-width:1.02786" />
    <path
       d="m 7031,2074 c 0,-11 3,-14 6,-6 3,7 2,16 -1,19 -3,4 -6,-2 -5,-13 z"
       id="path96"
       style="fill:#000000;fill-opacity:1;stroke-width:1.02786" />
    <path
       d="m 7296,2082 c -3,-5 5,-8 17,-8 16,1 22,-5 22,-19 0,-14 -6,-20 -20,-19 -16,0 -20,-6 -20,-30 0,-24 -4,-31 -19,-29 -11,1 -15,-2 -9,-8 16,-16 43,2 43,27 0,14 6,24 14,24 14,0 46,41 46,60 0,12 -66,14 -74,2 z"
       id="path97"
       style="fill:#000000;fill-opacity:1;stroke-width:1.02786" />
    <path
       d="m 1790,1999 c -42,-100 -223,-307 -346,-395 -77,-55 -168,-100 -219,-109 -70,-12 -75,-15 -75,-43 0,-41 -60,-180 -109,-250 C 1017,1167 930,1065 847,977 764,888 676,793 651,766 l -46,-50 40,33 c 22,19 110,100 195,181 85,81 184,169 220,196 73,55 190,112 265,129 50,11 50,12 57,59 8,60 58,166 110,236 100,133 277,292 376,337 l 52,24 v 60 59 h -59 c -56,0 -59,-1 -71,-31 z"
       id="path98"
       style="fill:#000000;fill-opacity:1;stroke-width:1.02786" />
    <path
       d="m 6350,1971 v -60 l 53,-24 c 98,-45 275,-204 375,-337 52,-70 102,-176 110,-236 7,-47 7,-48 57,-59 75,-17 192,-74 265,-129 36,-27 135,-115 220,-196 90,-81 170,-162 200,-181 l 40,-33 -50,50 c -30,27 -110,122 -200,211.1 -80,87.9 -167,189.9 -191,224.9 -49,70 -109,209 -109,250 0,28 -5,31 -75,43 -51,9 -142,54 -219,109 -123,88 -304,295 -346,395 -12,30 -15,31 -71,31 h -59 z"
       id="path99"
       style="fill:#000000;fill-opacity:1;stroke-width:1.02786" />
    <path
       d="m 777,1903 c 40,-20 60,-62 43,-93 -16,-30 -62,-24 -70,10 -4,17 -8,21 -14,12 -20,-33 26,-79 68,-68 59,15 52,116 -10,142 -45,19 -57,17 -17,-3 z"
       id="path100"
       style="fill:#000000;fill-opacity:1;stroke-width:1.02786" />
    <path
       d="m 7470,1906 c -60,-27 -60,-128 0,-142 40,-11 80,35 60,68 0,9 -10,5 -10,-12 -10,-34 -50,-40 -70,-10 -20,31 0,73 40,93 40,19 30,21 -20,3 z"
       id="path101"
       style="fill:#000000;fill-opacity:1;stroke-width:1.02786" />
    <path
       d="m 532,1831 c -34,-99 -26,-217 21,-308 10,-18 13,-34 8,-37 -12,-8 -49,53 -57,93 -4,17 -11,31 -17,31 -12,0 -3,-153 12,-193 12,-31 37,-45 53,-29 7,7 4,22 -13,49 -22,37 -22,37 -1,19 23,-20 49,-16 59,9 3,9 -11,52 -32,95 -20,44 -34,85 -32,92 4,8 6,7 6,-4 1,-25 50,-78 72,-78 28,0 25,41 -5,69 -28,26 -61,89 -52,98 3,4 6,1 6,-5 0,-13 28,-42 41,-42 16,0 10,31 -12,67 -12,19 -24,57 -28,86 l -7,52 z"
       id="path102"
       style="fill:#000000;fill-opacity:1;stroke-width:1.02786" />
    <path
       d="m 7710,1851 c 0,-21 -10,-58 -20,-85 -30,-49 -40,-76 -20,-76 10,0 40,29 40,42 0,6 0,9 10,5 10,-9 -30,-72 -60,-98 -30,-28 -30,-69 0,-69 20,0 70,53 70,78 0,11 0,12 10,4 0,-7 -10,-48 -30,-92 -30,-43 -40,-86 -40,-95 10,-25 40,-29 60,-9 20,18 20,18 0,-19 -20,-27 -20,-42 -10,-49 10,-16 40,-2 50,29 20,40 30,193 10,193 0,0 -10,-14 -10,-31 -10,-40 -50,-101 -60,-93 -10,3 0,19 10,37 40,90 50,208 20,305 -10,34 -20,62 -30,62 0,0 0,-17 0,-39 z"
       id="path103"
       style="fill:#000000;fill-opacity:1;stroke-width:1.02786" />
    <path
       d="m 466,1295 c 8,-19 9,-84 2,-152 -4,-39 12,-45 29,-12 l 13,24 v -23 c 0,-12 -9,-41 -21,-63 -23,-46 -22,-82 3,-87 19,-4 48,44 48,78 0,11 4,20 9,20 10,0 5,-50 -10,-110 -5,-19 -9,-47 -9,-62 0,-35 33,-47 62,-21 21,18 21,18 9,-4 -15,-29 -14,-60 3,-66 23,-9 36,15 36,65 0,49 -32,197 -36,168 -2,-8 -5,-36 -9,-61 -3,-26 -11,-54 -18,-64 -11,-14 -13,4 -13,102 1,109 -1,122 -26,173 -28,55 -88,135 -72,95 z"
       id="path104"
       style="fill:#000000;fill-opacity:1;stroke-width:1.02786" />
    <path
       d="m 7760,1251 c -50,-80 -60,-141 -60,-254.9 10,-80.1 10,-89.1 0,-72.1 -10,10 -20,39.1 -20,65.1 -10,24.9 -10,52.9 -10,60.9 -10,29 -40,-119 -40,-168 0,-50 10,-74 40,-65 10,6 10,37 0,66 -10,22 -10,22 10,4 30,-26 60,-14 60,21 0,15 0,43 -10,62.1 -10,59.9 -20,109.9 -10,109.9 10,0 10,-9 10,-20 0,-34 30,-81.9 50,-77.9 20,5 20,40.9 0,86.9 -10,22 -20,51 -20,63 v 23 l 10,-24 c 10,-13 20,-22 30,-20 10,4 10,18 -10,100 0,29 0,56 10,69 10,12 10,24 10,27 -10,3 -30,-22 -50,-56 z"
       id="path105"
       style="fill:#000000;fill-opacity:1;stroke-width:1.02786" />
    <path
       d="m 1875,1141 c 71,-9 106,-30 121,-71 9,-26 13,-29 13,-13 2,36 -10,53 -50,73 -24,13 -56,19 -86,19 l -48,-2 z"
       id="path106"
       style="fill:#000000;fill-opacity:1;stroke-width:1.02786" />
    <path
       d="m 6315,1134 c -40,-21 -55,-42 -54,-73 0,-23 2,-22 13,9 15,41 50,62 121,71 l 50,6 -50,1 c -28,1 -63,-6 -80,-14 z"
       id="path107"
       style="fill:#000000;fill-opacity:1;stroke-width:1.02786" />
    <path
       d="m 1855,1088 c 4,-10 17,-18 30,-18 13,0 25,-7 27,-17 6,-23 55,-50 68,-37 5,5 6,22 2,39 -8,28 -9,28 -14,7 -6,-22 -32,-30 -43,-12 -3,5 -1,20 6,32 9,19 9,21 -2,11 -7,-7 -22,-13 -34,-13 -12,0 -27,6 -34,13 -10,10 -11,9 -6,-5 z"
       id="path108"
       style="fill:#000000;fill-opacity:1;stroke-width:1.02786" />
    <path
       d="m 6339,1082 c 7,-12 9,-27 6,-32 -11,-18 -37,-10 -43,12 -5,21 -6,21 -14,-7 -4,-17 -3,-34 2,-39 13,-13 62,14 68,37 2,10 14,17 27,17 13,0 26,8 30,18 5,14 4,15 -6,5 -7,-7 -22,-13 -34,-13 -12,0 -27,6 -34,13 -11,10 -11,8 -2,-11 z"
       id="path109"
       style="fill:#000000;fill-opacity:1;stroke-width:1.02786" />
    <path
       d="m 2130,1026 c 0,-2 8,-10 18,-17 15,-13 16,-12 3,4 -13,16 -21,21 -21,13 z"
       id="path110"
       style="fill:#000000;fill-opacity:1;stroke-width:1.02786" />
    <path
       d="m 2590,1008 c -7,-13 -13,-34 -11,-48 9,-73 121,-62 121,12 0,54 -81,81 -110,36 z"
       id="path111"
       style="fill:#000000;fill-opacity:1;stroke-width:1.02786" />
    <path
       d="m 5587,1012 c -36,-39.9 -9,-102 44,-102 52,1 77,52.1 49,98 -18,28 -70,30 -93,4 z"
       id="path112"
       style="fill:#000000;fill-opacity:1;stroke-width:1.02786" />
    <path
       d="m 6119,1013 c -13,-15.9 -12,-16.9 4,-4 9,7 17,15 17,17 0,8 -8,3 -21,-13 z"
       id="path113"
       style="fill:#000000;fill-opacity:1;stroke-width:1.02786" />
    <path
       d="m 2862,978 c -7,-7 -12,-30 -12,-52 l 1,-41 14,33 c 13,29 17,32 35,22 25,-13 25,-27 3,-53 -17,-19 -17,-20 5,-8 45,24 82,-13 50,-49 -11,-12 -10,-12 5,-1 25,19 21,50 -8,63 -14,6 -25,19 -25,28 0,9 -13,28 -28,43 -22,21 -31,24 -40,15 z"
       id="path114"
       style="fill:#000000;fill-opacity:1;stroke-width:1.02786" />
    <path
       d="M 5367,962.1 C 5352,946 5340,927 5340,919 c 0,-9 -11,-21 -25,-27 -29,-13 -33,-44 -7,-63 14,-11 15,-11 5,1 -33,36 4,73 49,49 22,-12 22,-11 6,8 -23,26 -23,40 2,53 18,10 22,7 35,-22 l 14,-33 1,41 c 0,58.1 -19,71.1 -53,36.1 z"
       id="path115"
       style="fill:#000000;fill-opacity:1;stroke-width:1.02786" />
    <path
       d="m 1695,950 c -33,-13 -48,-37 -41,-65 7,-29 41,-50 64,-39 14,6 13,8 -8,13 -35,9 -41,58 -8,70 34,12 74,-6 92,-42 18,-36 22,-21 5,17 -9,20 -65,58 -81,55 -1,0 -12,-4 -23,-9 z"
       id="path116"
       style="fill:#000000;fill-opacity:1;stroke-width:1.02786" />
    <path
       d="m 6514,944 c -17,-8 -36,-26 -43,-40 -17,-38 -13,-53 5,-17 18,36 58,54 92,42 33,-12 27,-61 -8,-70 -21,-5 -22,-7 -8,-13 44,-19 87,50 52,84 -28,27 -55,31.1 -90,14 z"
       id="path117"
       style="fill:#000000;fill-opacity:1;stroke-width:1.02786" />
    <path
       d="m 2720,931 c 0,-6 5,-13 10,-16 6,-3 10,1 10,9 0,9 -4,16 -10,16 -5,0 -10,-4 -10,-9 z"
       id="path118"
       style="fill:#000000;fill-opacity:1;stroke-width:1.02786" />
    <path
       d="m 5530,924 c 0,-8 5,-12 10,-9 6,3 10,10 10,16 0,5 -4,9 -10,9 -5,0 -10,-7 -10,-16 z"
       id="path119"
       style="fill:#000000;fill-opacity:1;stroke-width:1.02786" />
    <path
       d="m 2815,903 c 14,-58 95,-114 162,-112 l 38,2 -40,6 c -73,13 -145,66 -145,108 0,13 -5,23 -11,23 -7,0 -9,-10 -4,-27 z"
       id="path120"
       style="fill:#000000;fill-opacity:1;stroke-width:1.02786" />
    <path
       d="m 5440,907 c 0,-42 -72,-95 -145,-108 l -40,-6 38,-2 c 42,-1 101,25 134,61 25,27 41,78 24,78 -6,0 -11,-10 -11,-23 z"
       id="path121"
       style="fill:#000000;fill-opacity:1;stroke-width:1.02786" />
    <path
       d="m 723,743 c -7,-2 -13,-14 -13,-25 0,-18 4,-20 36,-15 30,5 34,4 24,-8 -7,-8 -9,-24 -5,-36 6,-19 12,-21 54,-15 25,4 80,9 121,11 62,3 66,2 25,-4 -27,-4 -58,-11 -67,-15 -23,-10 -31,-37 -16,-53 11,-10 23,-8 67,12 29,14 65,24 79,24 23,-2 24,-2 5,-6 -12,-2 -27,-11 -33,-18 -19,-23 13,-30 65,-15 42,12 74,10 120,-5 36,-13 -37,43 -95,72 -51,26 -64,28 -173,28 -97,-1 -115,2 -101,12 9,7 44,15 78,19 l 61,7 -65,19 c -61,17 -140,22 -167,11 z"
       id="path122"
       style="fill:#000000;fill-opacity:1;stroke-width:1.02786" />
    <path
       d="m 7375,731 -60,-18 61,-7 c 34,-4 74,-12 74,-19 20,-10 0,-13 -97,-12 -109,0 -122,-2 -173,-28 -58,-29 -131,-85 -95,-72 46,15 78,17 120,5 52,-15 84,-8 65,15 -6,7 -21,16 -33,18 -19,4 -18,4 5,6 14,0 50,-10 79,-24 44,-20 56,-22 67,-12 12,16 12,43 -16,53 -9,4 -39,11 -67,15 -41,6 -37,7 25,4 41,-2 100,-7 120,-11 40,-6 50,-4 60,15 0,12 0,28 -10,36 -10,12 -10,13 20,8 40,-5 40,-3 40,15 0,11 -10,23 -20,26 -20,11 -100,5 -165,-13 z"
       id="path123"
       style="fill:#000000;fill-opacity:1;stroke-width:1.02786" />
    <path
       d="m 1463,725 c -7,-20 23,-54 62,-71 17,-7 23,-13 13,-14 -9,0 -49,16 -89,35 -86,41 -95,42 -109,14 -9,-17 -8,-25 7,-42 17,-20 17,-20 -19,2 -38,23 -58,21 -58,-4 0,-30 47,-46 147,-52 102,-6 115,3 36,25 -22,7 -52,21 -65,33 l -23,20 25,-5 c 14,-2 52,-15 85,-26 77,-28 196,-25 265,7 l 45,21 -44,1 c -28,1 -60,10 -88,27 -45,26 -77,26 -67,1 3,-8 15,-19 27,-25 16,-8 18,-11 6,-11 -10,-1 -41,17 -70,39 -58,43 -76,49 -86,25 z"
       id="path124"
       style="fill:#000000;fill-opacity:1;stroke-width:1.02786" />
    <path
       d="m 6721,700 c -29,-22 -60,-40 -70,-39 -12,0 -10,3 6,11 12,6 24,17 27,25 10,25 -22,25 -67,-1 -28,-17 -60,-26 -88,-27 l -44,-1 45,-21 c 69,-32 188,-35 265,-7 33,11 71,24 85,26 l 25,5 -23,-20 c -13,-12 -43,-26 -65,-33 -79,-22 -66,-31 36,-25 100,6 147,22 147,52 0,25 -20,27 -58,4 -36,-22 -36,-22 -19,-2 15,17 16,25 7,42 -14,28 -23,27 -109,-14 -40,-19 -80,-35 -89,-35 -10,1 -4,7 13,14 39,17 69,51 62,71 -10,24 -28,18 -86,-25 z"
       id="path125"
       style="fill:#000000;fill-opacity:1;stroke-width:1.02786" />
  </g>
  <text
     xml:space="preserve"
     style="font-size:131.25px;line-height:0.75;font-family:'Times New Roman';-inkscape-font-specification:'Times New Roman, ';text-align:center;text-anchor:middle;display:inline;fill:none;fill-opacity:0.286;stroke:#000000;stroke-width:1.05;stroke-linejoin:bevel;stroke-dashoffset:100.004;paint-order:stroke markers fill"
     x="569.7"
     y="419.6"
     id="text125"><tspan
       id="tspan125"
       style="font-size:131.25px;line-height:0.75;fill:#000000;fill-opacity:1;stroke-width:1.05"
       x="569.7"
       y="419.6"
       sodipodi:role="line">Draw a Destination</tspan></text>
</svg>
